<?xml version="1.0" standalone="no"?><!DOCTYPE svg PUBLIC "-//W3C//DTD SVG 1.1//EN" "http://www.w3.org/Graphics/SVG/1.1/DTD/svg11.dtd"><svg height="567" node-id="1" sillyvg="true" template-height="567" template-width="567" version="1.1" viewBox="0 0 567 567" width="567" xmlns="http://www.w3.org/2000/svg" xmlns:xlink="http://www.w3.org/1999/xlink"><defs node-id="79"></defs><g node-id="224"><path d="M 376.50 199.90 L 382.80 191.30 L 386.20 391.90 L 376.50 387.10 L 376.50 199.90 Z" fill="#7c7b7c" fill-opacity="0.37" fill-rule="nonzero" group-id="1" node-id="83" stroke="none" target-height="200.59999" target-width="9.700012" target-x="376.5" target-y="191.3"></path><path d="M 180.60 191.30 L 189.30 199.90 L 376.50 199.90 L 382.80 191.30 L 180.60 191.30 Z" fill="#686868" fill-opacity="0.37" fill-rule="nonzero" group-id="1" node-id="85" stroke="none" target-height="8.599991" target-width="202.19998" target-x="180.6" target-y="191.3"></path><path d="M 241.00 391.90 L 386.20 391.90 L 376.50 387.10 L 239.00 387.10 L 241.00 391.90 Z" fill="#8c8b8b" fill-opacity="0.37" fill-rule="nonzero" group-id="1" node-id="87" stroke="none" target-height="4.799988" target-width="147.20001" target-x="239" target-y="387.1"></path><path d="M 175.40 117.20 L 180.20 186.20 L 180.50 187.60 L 182.00 189.80 L 184.30 191.10 L 185.70 191.30 L 379.20 191.10 L 380.40 190.60 L 382.40 188.80 L 383.20 186.20 L 388.30 117.30 L 388.20 115.70 L 387.70 114.40 L 386.80 113.10 L 385.60 112.10 L 384.30 111.50 L 382.80 111.30 L 180.90 111.30 L 179.40 111.50 L 178.10 112.10 L 176.90 113.10 L 176.00 114.30 L 175.50 115.70 L 175.40 117.20 Z" fill="#727272" fill-opacity="0.37" fill-rule="nonzero" group-id="1" node-id="89" stroke="none" target-height="80" target-width="212.9" target-x="175.4" target-y="111.3"></path><path d="M 111.20 388.30 L 116.10 379.20 L 122.10 371.00 L 126.70 366.20 L 131.70 361.80 L 137.10 357.90 L 142.90 354.50 L 148.90 351.70 L 155.20 349.50 L 165.10 347.30 L 175.40 346.50 L 184.00 347.00 L 180.50 195.10 L 180.00 193.70 L 178.10 191.50 L 175.40 190.40 L 114.60 181.10 L 113.20 181.00 L 110.60 181.80 L 109.50 182.60 L 107.80 184.80 L 107.30 187.50 L 110.70 385.60 L 111.20 388.30 Z" fill="#727272" fill-opacity="0.37" fill-rule="nonzero" group-id="1" node-id="91" stroke="none" target-height="207.29999" target-width="76.7" target-x="107.3" target-y="181"></path><path d="M 189.30 347.90 L 189.30 199.90 L 180.60 191.30 L 184.00 347.00 L 189.30 347.90 Z" fill="#7c7b7c" fill-opacity="0.37" fill-rule="nonzero" group-id="1" node-id="93" stroke="none" target-height="156.59999" target-width="8.699997" target-x="180.6" target-y="191.3"></path><path d="M 239.00 387.10 L 376.50 387.10 L 376.50 199.90 L 189.30 199.90 L 189.30 347.90 L 194.70 349.20 L 199.90 350.90 L 204.90 353.00 L 209.80 355.50 L 214.40 358.40 L 218.80 361.60 L 222.90 365.10 L 226.80 368.90 L 230.30 373.00 L 233.50 377.40 L 236.40 382.10 L 239.00 387.10 Z" fill="#c0bfbf" fill-opacity="0.37" fill-rule="nonzero" group-id="1" node-id="95" stroke="none" target-height="187.20001" target-width="187.2" target-x="189.3" target-y="199.9"></path><path d="M 245.10 408.80 L 255.60 407.40 L 260.70 407.30 L 270.80 408.30 L 280.60 410.60 L 285.30 412.30 L 291.30 415.00 L 297.10 418.30 L 302.50 422.20 L 310.00 428.90 L 313.30 432.60 L 319.30 440.90 L 321.80 445.40 L 325.90 455.10 L 329.10 449.40 L 332.70 444.20 L 336.70 439.40 L 341.20 435.00 L 346.00 430.90 L 351.10 427.40 L 356.50 424.30 L 362.20 421.70 L 368.20 419.60 L 374.20 418.10 L 380.50 417.10 L 387.00 416.70 L 386.40 399.70 L 386.10 397.60 L 385.30 395.70 L 384.00 394.20 L 382.40 393.00 L 380.50 392.20 L 378.40 391.90 L 241.00 391.90 L 242.80 397.40 L 244.20 403.10 L 245.10 408.80 Z" fill="#727272" fill-opacity="0.37" fill-rule="nonzero" group-id="1" node-id="97" stroke="none" target-height="63.200012" target-width="146" target-x="241" target-y="391.9"></path><path d="M 383.60 391.80 L 434.80 390.40 L 439.70 386.50 L 444.80 383.00 L 450.20 380.00 L 455.90 377.50 L 461.70 375.50 L 467.80 374.00 L 464.50 182.60 L 464.30 181.70 L 463.70 180.90 L 462.90 180.50 L 407.90 190.00 L 385.30 193.50 L 383.50 192.90 L 382.80 191.20 L 381.30 389.50 L 382.00 391.20 L 383.60 391.80 Z" fill="#727272" fill-opacity="0.37" fill-rule="nonzero" group-id="1" node-id="99" stroke="none" target-height="211.29999" target-width="86.5" target-x="381.3" target-y="180.5"></path></g><path d="M 284.40 251.50 L 280.20 251.50 L 280.20 259.30 L 269.30 259.30 L 269.30 251.50 L 251.60 251.50 L 251.60 240.90 L 267.30 217.70 L 280.20 217.70 L 280.20 242.00 L 284.40 242.00 Z M 269.30 242.00 L 269.30 229.40 L 268.90 229.40 L 261.20 242.00 Z" fill="#c0bfbf" fill-rule="nonzero" node-id="102" stroke="none" target-height="41.59999" target-width="32.799988" target-x="251.6" target-y="217.7"></path><path d="M 304.60 259.90 L 301.20 259.70 L 297.90 259.00 L 294.40 257.10 L 292.90 255.60 L 290.50 251.40 L 289.80 249.00 L 288.90 243.80 L 288.60 238.50 L 288.90 233.20 L 289.80 227.90 L 290.50 225.50 L 292.90 221.40 L 294.40 219.90 L 297.90 218.00 L 301.20 217.30 L 304.60 217.10 L 307.90 217.30 L 311.20 218.00 L 313.10 218.80 L 316.20 221.40 L 317.60 223.40 L 319.30 227.90 L 320.20 233.20 L 320.40 238.50 L 320.20 243.80 L 319.30 249.00 L 317.60 253.60 L 316.20 255.60 L 314.70 257.10 L 311.20 259.00 L 307.90 259.70 L 304.60 259.90 Z M 304.60 250.20 L 306.90 249.70 L 307.80 249.00 L 308.40 248.00 L 309.20 244.40 L 309.40 238.60 L 309.20 232.60 L 308.40 229.00 L 307.80 228.00 L 306.90 227.20 L 304.60 226.70 L 302.30 227.20 L 301.30 228.00 L 300.80 229.00 L 299.90 232.60 L 299.70 238.60 L 299.90 244.40 L 300.80 248.00 L 301.30 249.00 L 302.30 249.80 L 304.60 250.20 Z" fill="#c0bfbf" fill-rule="nonzero" node-id="104" stroke="none" target-height="42.799988" target-width="31.799988" target-x="288.6" target-y="217.1"></path><path d="M 336.20 259.90 L 330.90 259.80 L 326.60 259.20 L 326.60 249.60 L 330.90 250.40 L 338.20 250.50 L 340.60 249.90 L 341.50 249.30 L 342.70 247.50 L 342.70 245.20 L 342.20 244.30 L 340.40 243.00 L 337.60 242.40 L 330.80 242.30 L 330.80 233.70 L 338.60 233.50 L 340.80 232.70 L 341.60 232.00 L 342.20 230.90 L 342.20 228.70 L 341.80 227.80 L 340.40 226.80 L 338.30 226.30 L 335.80 226.20 L 331.60 226.60 L 327.90 227.40 L 327.90 218.40 L 332.00 217.60 L 337.50 217.10 L 344.00 217.70 L 346.70 218.40 L 349.20 219.60 L 350.60 220.60 L 352.70 223.20 L 353.80 226.90 L 353.70 230.60 L 353.30 232.30 L 352.50 233.90 L 351.20 235.50 L 349.60 236.60 L 347.70 237.40 L 347.70 237.80 L 350.70 239.00 L 353.00 241.20 L 354.10 243.20 L 354.80 245.20 L 355.00 247.40 L 354.90 249.50 L 353.70 253.20 L 352.70 254.80 L 350.00 257.10 L 347.20 258.50 L 344.20 259.30 L 336.20 259.90 Z" fill="#c0bfbf" fill-rule="nonzero" node-id="106" stroke="none" target-height="42.799988" target-width="28.399994" target-x="326.6" target-y="217.1"></path><path d="M 417.70 162.70 L 417.30 160.90 L 416.40 159.30 L 414.90 158.00 L 413.00 157.00 L 410.90 156.30 L 408.40 156.10 L 406.00 156.30 L 403.80 157.00 L 401.90 158.00 L 400.50 159.40 L 399.50 161.00 L 399.20 162.70 L 395.50 164.10 L 393.10 166.40 L 392.50 167.80 L 392.20 169.30 L 392.50 171.10 L 393.50 172.80 L 394.90 174.10 L 396.80 175.20 L 399.00 175.90 L 401.50 176.10 L 404.10 175.90 L 407.80 174.60 L 409.00 174.60 L 412.70 175.80 L 415.30 176.10 L 417.80 175.90 L 420.00 175.20 L 421.90 174.10 L 423.30 172.70 L 424.30 171.10 L 424.60 169.30 L 424.30 167.80 L 423.70 166.40 L 421.30 164.10 L 417.70 162.70 Z" fill="#dddddd" fill-rule="nonzero" node-id="108" stroke="none" target-height="20" target-width="32.399994" target-x="392.2" target-y="156.1"></path><path d="M 156.50 141.10 L 156.30 139.10 L 155.70 137.20 L 153.30 133.90 L 149.40 131.30 L 144.70 129.70 L 142.00 129.40 L 138.90 129.50 L 136.00 130.00 L 133.50 130.90 L 131.10 132.10 L 129.20 133.60 L 127.80 135.40 L 124.70 132.70 L 122.60 131.60 L 118.10 130.20 L 112.80 129.90 L 107.90 131.00 L 105.70 132.00 L 102.30 134.60 L 101.10 136.20 L 100.30 138.00 L 99.80 140.00 L 96.70 140.70 L 93.90 141.80 L 91.50 143.50 L 89.70 145.40 L 88.20 148.40 L 88.00 150.10 L 88.10 152.10 L 88.70 154.00 L 89.70 155.80 L 92.80 158.80 L 97.20 161.00 L 102.50 162.00 L 105.40 161.90 L 108.20 161.50 L 112.40 160.20 L 113.90 160.10 L 115.40 160.30 L 119.40 162.10 L 122.20 162.80 L 125.00 163.20 L 130.30 162.70 L 137.40 160.10 L 140.40 159.60 L 141.90 159.80 L 145.90 161.60 L 148.60 162.30 L 151.50 162.70 L 154.30 162.60 L 159.20 161.50 L 161.40 160.50 L 164.80 157.80 L 166.00 156.10 L 166.80 154.30 L 167.20 152.30 L 167.10 150.60 L 165.90 147.50 L 164.40 145.40 L 162.20 143.60 L 159.60 142.10 L 156.50 141.10 Z" fill="#dddddd" fill-rule="nonzero" node-id="110" stroke="none" target-height="33.800003" target-width="79.2" target-x="88" target-y="129.4"></path><path d="M 212.00 282.20 L 211.00 283.80 L 211.00 288.60 L 210.60 288.60 L 210.60 284.20 L 209.30 285.70 L 209.10 285.40 L 211.70 282.00 Z M 211.80 280.10 L 209.60 282.70 L 209.40 282.50 L 211.60 279.90 Z M 215.60 286.40 L 218.20 287.90 L 218.00 288.20 L 215.50 286.80 L 214.10 284.40 L 213.10 284.40 L 213.10 288.10 L 215.10 287.20 L 215.20 287.50 L 212.70 288.70 L 212.50 288.40 L 212.70 288.20 L 212.70 280.40 L 217.10 280.40 L 217.10 284.40 L 214.40 284.40 L 215.40 286.20 L 217.30 284.80 L 217.50 285.10 L 215.60 286.40 Z M 213.10 280.70 L 213.10 282.20 L 216.70 282.20 L 216.70 280.70 Z M 213.10 284.00 L 216.70 284.00 L 216.70 282.50 L 213.10 282.50 Z" fill="#c0bfbf" fill-rule="nonzero" node-id="112" stroke="none" target-height="8.800018" target-width="9.099991" target-x="209.1" target-y="279.9"></path><path d="M 222.10 284.00 L 221.00 284.50 L 220.80 288.20 L 219.50 288.40 L 219.40 288.10 L 220.60 287.70 L 220.60 284.60 L 219.20 285.20 L 219.10 284.90 L 220.60 284.30 L 220.60 282.10 L 219.30 282.10 L 219.30 281.70 L 220.60 281.70 L 220.60 279.80 L 221.00 279.80 L 221.00 281.70 L 222.20 281.70 L 222.20 282.10 L 221.00 282.10 L 221.00 284.10 L 222.10 283.80 Z M 221.90 283.10 L 223.60 279.70 L 224.00 279.80 L 223.40 281.10 L 227.10 281.10 L 227.10 285.70 L 226.80 286.60 L 225.10 286.90 L 225.00 286.50 L 226.20 286.40 L 226.70 286.10 L 226.70 281.50 L 223.20 281.50 L 222.00 283.30 Z M 227.90 286.50 L 227.80 287.90 L 227.20 288.40 L 223.30 288.40 L 222.90 288.20 L 222.60 287.30 L 222.60 283.00 L 225.40 283.00 L 225.40 285.60 L 222.90 285.60 L 223.20 287.90 L 227.00 288.00 L 227.40 287.70 L 227.50 286.30 Z M 222.90 283.30 L 222.90 285.30 L 225.00 285.30 L 225.00 283.30 Z" fill="#c0bfbf" fill-rule="nonzero" node-id="114" stroke="none" target-height="8.699982" target-width="8.799988" target-x="219.1" target-y="279.7"></path><path d="M 233.60 287.50 L 232.20 286.20 L 232.20 288.70 L 231.90 288.70 L 231.90 285.60 L 230.80 285.60 L 230.80 288.70 L 230.50 288.70 L 230.50 286.20 L 228.90 288.20 L 228.70 287.90 L 230.50 285.60 L 229.10 285.60 L 229.10 285.30 L 230.50 285.30 L 230.50 284.20 L 228.90 284.20 L 228.90 283.90 L 230.50 283.90 L 230.50 282.80 L 229.20 282.80 L 229.20 282.50 L 230.50 282.50 L 230.50 281.30 L 229.10 281.30 L 229.10 281.00 L 231.90 281.00 L 232.80 279.60 L 233.00 279.80 L 232.30 281.00 L 234.00 281.00 L 234.00 281.30 L 232.20 281.30 L 232.20 282.50 L 233.50 282.50 L 233.50 283.90 L 234.40 283.90 L 234.40 284.20 L 233.50 284.20 L 233.50 285.60 L 232.20 285.60 L 232.20 286.10 L 232.40 285.90 L 233.80 287.30 Z M 230.60 280.90 L 229.80 279.80 L 230.10 279.70 L 230.90 280.80 Z M 230.80 282.50 L 231.90 282.50 L 231.90 281.30 L 230.80 281.30 Z M 230.80 283.90 L 231.90 283.90 L 231.90 282.80 L 230.80 282.80 Z M 231.90 285.30 L 231.90 284.20 L 230.80 284.20 L 230.80 285.30 Z M 232.20 282.80 L 232.20 283.90 L 233.20 283.90 L 233.20 282.80 Z M 233.20 284.20 L 232.20 284.20 L 232.20 285.30 L 233.30 285.30 Z M 235.60 283.40 L 236.20 286.20 L 237.80 288.40 L 237.60 288.70 L 236.30 287.00 L 235.50 285.00 L 234.80 287.00 L 233.40 288.70 L 233.20 288.50 L 234.80 286.30 L 235.20 285.00 L 235.30 282.30 L 235.60 282.30 L 235.60 283.40 Z M 233.90 283.40 L 235.10 279.70 L 235.40 279.80 L 235.00 281.40 L 237.40 281.40 L 237.40 281.80 L 236.60 283.80 L 236.30 283.70 L 237.00 281.80 L 234.90 281.80 L 234.20 283.50 Z" fill="#c0bfbf" fill-rule="nonzero" node-id="116" stroke="none" target-height="9.100006" target-width="9.100006" target-x="228.7" target-y="279.6"></path><path d="M 240.00 289.10 L 241.00 286.70 L 241.40 286.70 L 241.30 287.30 L 240.40 289.10 Z" fill="#c0bfbf" fill-rule="nonzero" node-id="118" stroke="none" target-height="2.399994" target-width="1.3999939" target-x="240" target-y="286.7"></path><path d="M 251.20 279.90 L 250.40 281.40 L 250.40 285.30 L 250.10 285.30 L 250.10 281.90 L 248.80 283.40 L 248.60 283.10 L 250.90 279.80 Z M 248.80 288.00 L 250.00 285.90 L 250.30 286.00 L 249.10 288.20 Z M 253.00 282.70 L 251.30 285.00 L 251.00 284.80 L 252.70 282.60 Z M 251.20 282.40 L 253.00 279.70 L 253.30 279.80 L 252.80 280.80 L 257.10 280.80 L 256.30 282.50 L 256.00 282.40 L 256.70 281.20 L 252.60 281.20 L 251.40 282.60 Z M 255.00 287.40 L 255.00 286.50 L 255.30 286.70 L 255.10 287.90 L 254.70 288.30 L 251.40 288.10 L 251.20 285.70 L 251.50 285.70 L 251.50 287.60 L 251.90 288.00 L 254.50 288.00 L 255.00 287.40 Z M 252.90 285.50 L 254.00 286.80 L 253.70 287.00 L 252.60 285.70 Z M 254.60 284.30 L 254.40 285.00 L 253.00 285.20 L 252.90 284.90 L 254.10 284.70 L 254.20 281.90 L 254.60 281.90 Z M 257.20 284.90 L 255.40 282.80 L 255.70 282.60 L 257.40 284.70 Z M 256.00 285.60 L 257.50 287.80 L 257.20 288.00 L 255.70 285.80 Z" fill="#c0bfbf" fill-rule="nonzero" node-id="120" stroke="none" target-height="8.599976" target-width="8.899994" target-x="248.6" target-y="279.7"></path><path d="M 260.60 284.00 L 258.70 282.50 L 258.90 282.20 L 260.80 283.70 Z M 260.80 285.20 L 259.30 288.50 L 259.00 288.40 L 260.70 285.10 Z M 261.20 281.80 L 259.40 280.30 L 259.60 280.00 L 261.40 281.50 Z M 267.40 288.70 L 264.10 287.10 L 260.60 288.70 L 260.40 288.40 L 263.80 286.90 L 262.70 285.80 L 261.90 284.50 L 262.20 284.30 L 262.90 285.60 L 264.00 286.70 L 265.20 285.50 L 265.90 284.30 L 261.40 284.30 L 261.40 283.90 L 266.30 283.90 L 265.60 285.60 L 264.30 286.90 L 267.50 288.40 Z M 261.30 283.40 L 262.30 282.50 L 262.60 280.40 L 265.70 280.40 L 265.80 282.60 L 267.30 282.80 L 267.30 283.10 L 265.60 282.90 L 265.40 280.70 L 263.00 280.70 L 262.70 282.60 L 261.60 283.70 Z" fill="#c0bfbf" fill-rule="nonzero" node-id="122" stroke="none" target-height="8.700012" target-width="8.799988" target-x="258.7" target-y="280"></path><path d="M 271.80 281.40 L 270.90 282.80 L 275.90 282.80 L 275.80 288.00 L 274.80 288.50 L 273.80 288.50 L 273.70 288.20 L 275.40 288.10 L 275.50 286.70 L 270.70 286.70 L 270.70 288.70 L 270.40 288.70 L 270.40 283.40 L 268.50 285.30 L 268.30 285.00 L 270.00 283.40 L 271.40 281.50 L 268.70 281.50 L 268.70 281.20 L 271.50 281.20 L 272.20 279.80 L 272.50 279.90 L 271.90 281.20 L 277.20 281.20 L 277.20 281.50 Z M 275.60 283.10 L 270.80 283.10 L 270.80 284.60 L 275.60 284.60 Z M 275.60 286.30 L 275.60 284.90 L 270.80 284.90 L 270.80 286.30 Z" fill="#c0bfbf" fill-rule="nonzero" node-id="124" stroke="none" target-height="8.900024" target-width="8.900024" target-x="268.3" target-y="279.8"></path><path d="M 281.60 286.30 L 279.70 288.00 L 279.50 287.70 L 279.70 283.50 L 278.20 283.50 L 278.20 283.10 L 280.00 283.10 L 280.00 287.20 L 281.40 286.00 Z M 280.30 282.10 L 278.80 280.40 L 279.10 280.10 L 280.60 281.90 Z M 283.00 281.70 L 283.00 283.60 L 286.10 283.60 L 286.00 287.70 L 285.30 288.20 L 283.90 288.30 L 283.80 288.00 L 285.10 287.90 L 285.60 287.50 L 285.70 284.00 L 283.00 284.00 L 282.50 286.70 L 281.20 288.70 L 280.90 288.40 L 282.30 286.30 L 282.70 281.70 L 281.20 281.70 L 281.20 281.40 L 284.00 281.40 L 283.50 279.80 L 283.80 279.80 L 284.40 281.40 L 287.10 281.40 L 287.10 281.80 Z" fill="#c0bfbf" fill-rule="nonzero" node-id="126" stroke="none" target-height="8.900024" target-width="8.899994" target-x="278.2" target-y="279.8"></path><path d="M 288.90 288.60 L 288.90 281.60 L 289.20 281.60 L 289.20 288.60 Z M 289.20 279.80 L 290.70 281.30 L 290.50 281.60 L 289.00 280.10 Z M 290.80 286.40 L 290.80 282.80 L 294.20 282.80 L 294.20 286.40 Z M 293.90 283.10 L 291.20 283.10 L 291.20 286.00 L 293.90 286.00 Z M 296.20 287.30 L 295.90 288.20 L 295.50 288.40 L 293.90 288.50 L 293.80 288.20 L 295.30 288.00 L 295.80 287.60 L 295.80 280.90 L 291.20 280.90 L 291.20 280.60 L 296.10 280.60 Z" fill="#c0bfbf" fill-rule="nonzero" node-id="128" stroke="none" target-height="8.800018" target-width="7.3000183" target-x="288.9" target-y="279.8"></path><path d="M 303.00 286.70 L 297.90 288.10 L 297.80 287.70 L 298.90 287.50 L 298.90 281.60 L 299.30 281.60 L 299.30 287.40 L 300.80 287.00 L 300.80 279.90 L 301.20 279.90 L 301.20 282.80 L 302.80 282.80 L 302.80 283.10 L 301.20 283.10 L 301.20 287.00 L 303.00 286.60 Z M 306.50 285.80 L 306.20 288.00 L 304.00 288.20 L 303.40 287.60 L 303.40 279.70 L 303.70 279.70 L 303.70 283.70 L 306.20 281.40 L 306.50 281.70 L 303.70 284.10 L 303.90 287.70 L 305.90 287.70 L 306.20 285.60 Z" fill="#c0bfbf" fill-rule="nonzero" node-id="130" stroke="none" target-height="8.5" target-width="8.700012" target-x="297.8" target-y="279.7"></path><path d="M 312.20 284.00 L 312.00 286.00 L 311.40 287.00 L 310.10 287.90 L 307.90 288.70 L 307.80 288.30 L 311.10 286.80 L 311.70 285.90 L 311.80 283.40 L 312.20 283.40 Z M 311.50 282.30 L 312.00 280.70 L 308.00 280.70 L 308.00 280.30 L 316.10 280.30 L 316.10 280.70 L 312.30 280.70 L 311.80 282.30 L 315.00 282.30 L 315.00 286.50 L 314.70 286.50 L 314.70 282.70 L 309.40 282.70 L 309.40 286.50 L 309.00 286.50 L 309.00 282.30 Z M 312.30 286.10 L 316.10 288.30 L 315.90 288.60 L 312.20 286.40 Z" fill="#c0bfbf" fill-rule="nonzero" node-id="132" stroke="none" target-height="8.400024" target-width="8.300018" target-x="307.8" target-y="280.3"></path><path d="M 322.00 280.60 L 321.40 282.10 L 325.40 282.10 L 325.40 288.60 L 325.10 288.60 L 325.10 287.90 L 318.70 287.90 L 318.70 288.60 L 318.40 288.60 L 318.40 282.10 L 321.10 282.10 L 321.70 280.60 L 317.70 280.60 L 317.70 280.30 L 326.20 280.30 L 326.20 280.60 Z M 318.70 287.60 L 320.40 287.60 L 320.40 282.50 L 318.70 282.50 Z M 323.10 282.50 L 320.70 282.50 L 320.70 284.00 L 323.10 284.00 Z M 323.10 284.30 L 320.70 284.30 L 320.70 285.80 L 323.10 285.80 Z M 320.70 287.60 L 323.10 287.60 L 323.10 286.10 L 320.70 286.10 Z M 325.10 282.50 L 323.40 282.50 L 323.40 287.60 L 325.10 287.60 Z" fill="#c0bfbf" fill-rule="nonzero" node-id="134" stroke="none" target-height="8.300018" target-width="8.5" target-x="317.7" target-y="280.3"></path><path d="M 329.90 279.80 L 329.50 281.40 L 331.20 281.40 L 331.20 288.30 L 328.10 288.30 L 328.10 281.40 L 329.10 281.40 L 329.50 279.70 Z M 330.80 281.80 L 328.40 281.80 L 328.40 284.50 L 330.80 284.50 Z M 330.80 287.90 L 330.80 284.80 L 328.40 284.80 L 328.40 287.90 Z M 335.80 281.40 L 335.60 287.70 L 335.00 288.20 L 333.60 288.40 L 333.40 288.00 L 334.80 287.90 L 335.30 287.50 L 335.40 281.70 L 332.50 281.70 L 331.60 283.40 L 331.30 283.20 L 332.90 279.60 L 333.20 279.70 L 332.70 281.40 Z M 333.80 285.60 L 332.20 283.40 L 332.40 283.20 L 334.00 285.40 Z" fill="#c0bfbf" fill-rule="nonzero" node-id="136" stroke="none" target-height="8.799988" target-width="7.6999817" target-x="328.1" target-y="279.6"></path><path d="M 339.40 282.10 L 339.40 288.70 L 339.10 288.70 L 339.10 283.10 L 337.80 285.70 L 337.30 286.40 L 337.10 286.10 L 339.00 282.20 L 337.50 282.20 L 337.50 281.80 L 339.10 281.80 L 339.10 279.70 L 339.40 279.70 L 339.40 281.80 L 340.90 281.80 L 340.90 282.20 Z M 340.90 285.00 L 339.50 283.40 L 339.70 283.20 L 341.10 284.80 Z M 343.40 285.80 L 346.20 288.30 L 346.00 288.70 L 343.20 286.00 L 340.20 288.70 L 339.90 288.40 L 343.00 285.80 L 341.80 283.60 L 341.20 281.00 L 341.50 280.90 L 342.10 283.40 L 343.20 285.50 L 344.30 283.40 L 345.00 280.80 L 340.70 280.80 L 340.70 280.40 L 345.40 280.40 L 344.60 283.50 L 343.40 285.80 Z" fill="#c0bfbf" fill-rule="nonzero" node-id="138" stroke="none" target-height="9" target-width="9.100006" target-x="337.1" target-y="279.7"></path><path d="M 347.60 280.30 L 350.10 280.30 L 349.20 283.00 L 349.80 284.20 L 350.00 285.90 L 349.80 286.30 L 348.80 286.60 L 348.40 286.60 L 348.30 286.30 L 349.20 286.20 L 349.70 285.70 L 349.50 284.20 L 348.80 283.10 L 349.70 280.60 L 348.00 280.60 L 348.00 288.50 L 347.70 288.50 Z M 353.60 286.40 L 356.00 287.90 L 355.80 288.20 L 353.50 286.80 L 352.10 284.40 L 351.10 284.40 L 351.10 288.10 L 353.00 287.20 L 353.10 287.50 L 350.80 288.70 L 350.60 288.40 L 350.80 280.40 L 354.90 280.40 L 354.90 284.40 L 352.50 284.40 L 353.40 286.20 L 355.20 284.80 L 355.40 285.10 L 353.60 286.40 Z M 351.10 280.70 L 351.10 282.20 L 354.60 282.20 L 354.60 280.70 Z M 351.10 284.00 L 354.60 284.00 L 354.60 282.50 L 351.10 282.50 Z" fill="#c0bfbf" fill-rule="nonzero" node-id="140" stroke="none" target-height="8.400024" target-width="8.399994" target-x="347.6" target-y="280.3"></path><path d="M 359.20 288.70 L 358.30 288.40 L 358.00 287.60 L 358.30 286.70 L 359.20 286.50 L 360.00 286.70 L 360.40 287.60 L 360.00 288.40 L 359.20 288.70 Z M 359.20 288.40 L 359.80 288.20 L 360.00 287.60 L 359.80 287.00 L 359.20 286.80 L 358.60 287.00 L 358.30 287.60 L 358.60 288.20 L 359.20 288.40 Z" fill="#c0bfbf" fill-rule="nonzero" node-id="142" stroke="none" target-height="2.2000122" target-width="2.399994" target-x="358" target-y="286.5"></path><path d="M 252.50 263.40 L 281.50 263.40 L 281.50 265.20 L 252.50 265.20 Z" fill="#c0bfbf" fill-rule="nonzero" node-id="144" stroke="none" target-height="1.8000183" target-width="29" target-x="252.5" target-y="263.4"></path><path d="M 281.60 263.80 L 356.70 263.80 L 356.70 264.80 L 281.60 264.80 Z" fill="#c0bfbf" fill-rule="nonzero" node-id="146" stroke="none" target-height="1" target-width="75.100006" target-x="281.6" target-y="263.8"></path><path d="M 252.00 296.80 L 250.80 296.70 L 250.80 296.40 L 252.00 296.60 L 253.10 296.10 L 252.90 295.10 L 251.00 294.10 L 251.00 293.20 L 251.70 292.60 L 253.20 292.60 L 253.20 293.00 L 252.20 292.90 L 251.20 293.30 L 251.30 294.20 L 252.70 294.70 L 253.30 295.30 L 253.30 296.20 L 253.00 296.60 L 252.00 296.80 Z" fill="#c0bfbf" fill-rule="nonzero" node-id="148" stroke="none" target-height="4.1999817" target-width="2.5" target-x="250.8" target-y="292.6"></path><path d="M 255.50 296.80 L 254.40 296.50 L 254.10 295.10 L 254.40 293.80 L 255.50 293.50 L 256.60 293.80 L 256.90 295.10 L 256.60 296.50 L 255.50 296.80 Z M 255.50 296.60 L 256.40 296.30 L 256.50 295.80 L 256.50 294.50 L 256.00 293.80 L 255.00 293.80 L 254.40 294.50 L 254.60 296.30 L 255.50 296.60 Z" fill="#c0bfbf" fill-rule="nonzero" node-id="150" stroke="none" target-height="3.2999878" target-width="2.7999878" target-x="254.1" target-y="293.5"></path><path d="M 259.20 293.50 L 258.10 294.40 L 258.10 296.70 L 257.80 296.70 L 257.80 293.50 L 258.10 293.50 L 258.10 294.10 L 258.50 293.50 L 259.10 293.40 Z" fill="#c0bfbf" fill-rule="nonzero" node-id="152" stroke="none" target-height="3.3000183" target-width="1.4000244" target-x="257.8" target-y="293.4"></path><path d="M 261.20 293.50 L 260.10 294.40 L 260.10 296.70 L 259.90 296.70 L 259.90 293.50 L 260.10 293.50 L 260.10 294.10 L 260.60 293.50 L 261.20 293.40 Z" fill="#c0bfbf" fill-rule="nonzero" node-id="154" stroke="none" target-height="3.3000183" target-width="1.3000183" target-x="259.9" target-y="293.4"></path><path d="M 261.70 297.70 L 262.30 297.60 L 262.70 296.80 L 261.40 293.60 L 261.70 293.60 L 262.90 296.50 L 263.90 293.60 L 264.10 293.60 L 262.70 297.30 L 261.60 298.00 Z" fill="#c0bfbf" fill-rule="nonzero" node-id="156" stroke="none" target-height="4.399994" target-width="2.7000122" target-x="261.4" target-y="293.6"></path><path d="M 263.80 297.60 L 264.40 296.10 L 264.70 296.10 L 264.60 296.50 L 264.10 297.60 Z" fill="#c0bfbf" fill-rule="nonzero" node-id="158" stroke="none" target-height="1.5" target-width="0.9000244" target-x="263.8" target-y="296.1"></path><path d="M 266.90 297.70 L 267.50 297.60 L 267.90 296.80 L 266.60 293.60 L 266.90 293.60 L 268.00 296.40 L 269.00 293.50 L 269.30 293.50 L 267.90 297.30 L 266.80 298.00 Z" fill="#c0bfbf" fill-rule="nonzero" node-id="160" stroke="none" target-height="4.5" target-width="2.6999817" target-x="266.6" target-y="293.5"></path><path d="M 271.20 296.80 L 270.10 296.50 L 269.80 295.10 L 270.10 293.80 L 271.20 293.50 L 272.20 293.80 L 272.60 295.10 L 272.20 296.50 L 271.20 296.80 Z M 271.20 296.60 L 272.10 296.30 L 272.20 295.80 L 272.20 294.50 L 271.70 293.80 L 270.60 293.80 L 270.10 294.50 L 270.30 296.30 L 271.20 296.60 Z" fill="#c0bfbf" fill-rule="nonzero" node-id="162" stroke="none" target-height="3.2999878" target-width="2.8000183" target-x="269.8" target-y="293.5"></path><path d="M 275.90 293.50 L 275.90 296.80 L 275.60 296.80 L 275.60 296.20 L 274.90 296.80 L 274.10 296.70 L 273.60 296.20 L 273.60 293.50 L 273.80 293.50 L 273.80 296.00 L 274.60 296.50 L 275.20 296.40 L 275.70 295.80 L 275.70 293.50 Z" fill="#c0bfbf" fill-rule="nonzero" node-id="164" stroke="none" target-height="3.2999878" target-width="2.2999878" target-x="273.6" target-y="293.5"></path><path d="M 280.90 292.20 L 280.90 296.80 L 280.70 296.80 L 280.70 296.00 L 280.30 296.60 L 279.50 296.80 L 278.50 296.40 L 278.30 294.40 L 278.90 293.60 L 279.50 293.50 L 280.30 293.70 L 280.70 294.20 L 280.70 292.20 Z M 279.50 296.60 L 280.10 296.50 L 280.60 295.70 L 280.60 294.60 L 280.10 293.80 L 279.00 293.80 L 278.60 294.50 L 278.70 296.20 L 279.50 296.60 Z" fill="#c0bfbf" fill-rule="nonzero" node-id="166" stroke="none" target-height="4.5999756" target-width="2.600006" target-x="278.3" target-y="292.2"></path><path d="M 283.30 296.80 L 282.20 296.50 L 281.90 295.10 L 282.20 293.80 L 283.30 293.50 L 284.30 293.80 L 284.60 295.10 L 284.30 296.50 L 283.30 296.80 Z M 283.30 296.60 L 284.10 296.30 L 284.30 295.80 L 284.30 294.50 L 283.80 293.80 L 282.70 293.80 L 282.20 294.50 L 282.40 296.30 L 283.30 296.60 Z" fill="#c0bfbf" fill-rule="nonzero" node-id="168" stroke="none" target-height="3.2999878" target-width="2.7000122" target-x="281.9" target-y="293.5"></path><path d="M 286.90 293.50 L 287.50 293.50 L 288.00 294.10 L 288.00 296.80 L 287.70 296.80 L 287.70 294.20 L 287.00 293.70 L 286.10 294.10 L 285.90 296.70 L 285.60 296.70 L 285.60 293.50 L 285.90 293.50 L 285.90 294.00 L 286.30 293.60 L 286.90 293.50 Z" fill="#c0bfbf" fill-rule="nonzero" node-id="170" stroke="none" target-height="3.2999878" target-width="2.399994" target-x="285.6" target-y="293.5"></path><path d="M 289.10 292.20 L 289.50 292.20 L 289.30 294.00 Z" fill="#c0bfbf" fill-rule="nonzero" node-id="172" stroke="none" target-height="1.7999878" target-width="0.3999939" target-x="289.1" target-y="292.2"></path><path d="M 291.50 296.50 L 291.90 296.50 L 291.90 296.80 L 290.90 296.70 L 290.70 293.80 L 290.20 293.80 L 290.20 293.60 L 290.70 293.60 L 290.70 292.80 L 291.00 292.80 L 291.00 293.60 L 291.90 293.60 L 291.90 293.80 L 291.00 293.80 L 291.00 296.20 L 291.50 296.50 Z" fill="#c0bfbf" fill-rule="nonzero" node-id="174" stroke="none" target-height="4" target-width="1.6999817" target-x="290.2" target-y="292.8"></path><path d="M 295.30 293.50 L 296.30 294.10 L 296.40 296.80 L 296.10 296.80 L 296.10 294.20 L 295.30 293.70 L 294.40 294.10 L 294.20 296.70 L 294.00 296.70 L 294.00 292.20 L 294.20 292.20 L 294.20 294.00 L 294.70 293.60 L 295.30 293.50 Z" fill="#c0bfbf" fill-rule="nonzero" node-id="176" stroke="none" target-height="4.5999756" target-width="2.399994" target-x="294" target-y="292.2"></path><path d="M 298.70 293.50 L 299.30 293.50 L 299.80 294.10 L 299.90 296.80 L 299.60 296.80 L 299.60 296.20 L 299.10 296.70 L 298.40 296.80 L 297.50 296.60 L 297.30 295.90 L 297.60 295.10 L 299.60 294.90 L 299.50 294.00 L 298.00 293.80 L 298.00 293.50 L 298.40 293.50 Z M 298.30 296.60 L 299.10 296.40 L 299.60 295.80 L 299.60 295.10 L 297.80 295.20 L 297.50 295.80 L 297.70 296.40 L 298.30 296.60 Z" fill="#c0bfbf" fill-rule="nonzero" node-id="178" stroke="none" target-height="3.2999878" target-width="2.600006" target-x="297.3" target-y="293.5"></path><path d="M 300.40 293.50 L 300.70 293.50 L 301.80 296.50 L 302.80 293.50 L 303.10 293.50 L 301.90 296.80 L 301.60 296.80 Z" fill="#c0bfbf" fill-rule="nonzero" node-id="180" stroke="none" target-height="3.2999878" target-width="2.7000122" target-x="300.4" target-y="293.5"></path><path d="M 306.10 294.80 L 306.10 295.10 L 303.80 295.30 L 304.10 296.30 L 305.00 296.60 L 306.00 296.40 L 305.50 296.80 L 303.90 296.40 L 303.50 295.10 L 303.80 293.80 L 304.90 293.40 L 305.90 293.80 L 306.10 294.80 Z M 305.80 294.90 L 305.70 294.00 L 304.90 293.70 L 304.10 294.00 L 303.90 295.00 Z" fill="#c0bfbf" fill-rule="nonzero" node-id="182" stroke="none" target-height="3.399994" target-width="2.600006" target-x="303.5" target-y="293.4"></path><path d="M 309.70 293.50 L 310.30 293.50 L 310.80 294.10 L 310.90 296.80 L 310.60 296.80 L 310.60 296.20 L 310.10 296.70 L 309.40 296.80 L 308.50 296.60 L 308.30 295.90 L 308.60 295.10 L 310.60 294.90 L 310.50 294.00 L 309.00 293.80 L 309.00 293.50 L 309.40 293.50 Z M 309.30 296.60 L 310.10 296.40 L 310.60 295.80 L 310.60 295.10 L 308.80 295.20 L 308.50 295.80 L 308.70 296.40 L 309.30 296.60 Z" fill="#c0bfbf" fill-rule="nonzero" node-id="184" stroke="none" target-height="3.2999878" target-width="2.600006" target-x="308.3" target-y="293.5"></path><path d="M 313.10 296.80 L 312.10 296.50 L 311.80 295.10 L 312.10 293.80 L 313.10 293.50 L 314.00 293.50 L 314.00 293.80 L 312.60 293.80 L 312.10 294.50 L 312.30 296.30 L 313.10 296.60 L 314.00 296.40 L 314.00 296.70 L 313.10 296.80 Z" fill="#c0bfbf" fill-rule="nonzero" node-id="186" stroke="none" target-height="3.2999878" target-width="2.2000122" target-x="311.8" target-y="293.5"></path><path d="M 315.90 296.80 L 314.90 296.50 L 314.60 295.10 L 314.90 293.80 L 315.90 293.50 L 316.80 293.50 L 316.80 293.80 L 315.40 293.80 L 314.90 294.50 L 315.10 296.30 L 315.90 296.60 L 316.80 296.40 L 316.80 296.70 L 315.90 296.80 Z" fill="#c0bfbf" fill-rule="nonzero" node-id="188" stroke="none" target-height="3.2999878" target-width="2.1999817" target-x="314.6" target-y="293.5"></path><path d="M 320.00 294.80 L 320.00 295.10 L 317.70 295.30 L 318.00 296.30 L 318.90 296.60 L 319.90 296.40 L 319.90 296.60 L 319.50 296.80 L 317.80 296.40 L 317.40 295.10 L 317.80 293.80 L 318.80 293.40 L 319.80 293.80 L 320.00 294.80 Z M 319.70 294.90 L 319.60 294.00 L 318.80 293.70 L 318.00 294.00 L 317.70 295.00 Z" fill="#c0bfbf" fill-rule="nonzero" node-id="190" stroke="none" target-height="3.399994" target-width="2.600006" target-x="317.4" target-y="293.4"></path><path d="M 321.60 296.80 L 320.70 296.70 L 320.70 296.50 L 322.30 296.40 L 322.50 295.70 L 321.00 294.90 L 320.80 294.30 L 321.10 293.70 L 321.80 293.50 L 322.70 293.50 L 322.70 293.80 L 321.30 293.80 L 321.10 294.60 L 322.50 295.30 L 322.80 295.90 L 322.50 296.60 L 321.60 296.80 Z" fill="#c0bfbf" fill-rule="nonzero" node-id="192" stroke="none" target-height="3.2999878" target-width="2.0999756" target-x="320.7" target-y="293.5"></path><path d="M 324.30 296.80 L 323.40 296.70 L 323.40 296.50 L 325.00 296.40 L 325.20 295.70 L 323.70 294.90 L 323.60 294.30 L 323.90 293.70 L 324.60 293.50 L 325.40 293.50 L 325.40 293.80 L 324.10 293.80 L 323.90 294.60 L 325.30 295.30 L 325.60 295.90 L 325.30 296.60 L 324.30 296.80 Z" fill="#c0bfbf" fill-rule="nonzero" node-id="194" stroke="none" target-height="3.2999878" target-width="2.2000122" target-x="323.4" target-y="293.5"></path><path d="M 328.60 296.50 L 329.00 296.50 L 329.00 296.80 L 327.90 296.70 L 327.80 293.80 L 327.20 293.80 L 327.20 293.60 L 327.80 293.60 L 327.80 292.80 L 328.00 292.80 L 328.00 293.60 L 328.90 293.60 L 328.90 293.80 L 328.00 293.80 L 328.00 296.20 L 328.60 296.50 Z" fill="#c0bfbf" fill-rule="nonzero" node-id="196" stroke="none" target-height="4" target-width="1.7999878" target-x="327.2" target-y="292.8"></path><path d="M 330.80 296.80 L 329.70 296.50 L 329.40 295.10 L 329.70 293.80 L 330.80 293.50 L 331.80 293.80 L 332.20 295.10 L 331.80 296.50 L 330.80 296.80 Z M 330.80 296.60 L 331.70 296.30 L 331.80 295.80 L 331.80 294.50 L 331.30 293.80 L 330.20 293.80 L 329.70 294.50 L 329.90 296.30 L 330.80 296.60 Z" fill="#c0bfbf" fill-rule="nonzero" node-id="198" stroke="none" target-height="3.2999878" target-width="2.8000183" target-x="329.4" target-y="293.5"></path><path d="M 335.30 296.50 L 335.80 296.50 L 335.80 296.80 L 334.70 296.70 L 334.50 293.80 L 334.00 293.80 L 334.00 293.60 L 334.50 293.60 L 334.50 292.80 L 334.80 292.80 L 334.80 293.60 L 335.70 293.60 L 335.70 293.80 L 334.80 293.80 L 334.80 296.20 L 335.30 296.50 Z" fill="#c0bfbf" fill-rule="nonzero" node-id="200" stroke="none" target-height="4" target-width="1.7999878" target-x="334" target-y="292.8"></path><path d="M 337.70 293.50 L 338.20 293.50 L 338.70 294.10 L 338.80 296.80 L 338.50 296.80 L 338.50 294.20 L 337.70 293.70 L 336.80 294.10 L 336.70 296.70 L 336.40 296.70 L 336.40 292.20 L 336.70 292.20 L 336.70 294.00 L 337.10 293.60 L 337.70 293.50 Z" fill="#c0bfbf" fill-rule="nonzero" node-id="202" stroke="none" target-height="4.5999756" target-width="2.399994" target-x="336.4" target-y="292.2"></path><path d="M 340.00 292.80 L 340.00 292.50 L 340.00 292.80 Z M 339.90 293.50 L 340.10 293.50 L 340.10 296.80 L 339.90 296.80 Z" fill="#c0bfbf" fill-rule="nonzero" node-id="204" stroke="none" target-height="4.299988" target-width="0.2000122" target-x="339.9" target-y="292.5"></path><path d="M 342.00 296.80 L 341.10 296.70 L 341.10 296.50 L 342.60 296.40 L 342.90 295.70 L 341.40 294.90 L 341.20 294.30 L 341.50 293.70 L 342.20 293.50 L 343.10 293.50 L 343.10 293.80 L 341.70 293.80 L 341.50 294.60 L 342.90 295.30 L 343.20 295.90 L 342.90 296.60 L 342.00 296.80 Z" fill="#c0bfbf" fill-rule="nonzero" node-id="206" stroke="none" target-height="3.2999878" target-width="2.100006" target-x="341.1" target-y="293.5"></path><path d="M 346.90 293.50 L 347.80 293.90 L 348.00 295.80 L 347.50 296.70 L 346.90 296.80 L 346.10 296.60 L 345.70 296.10 L 345.70 298.00 L 345.40 298.00 L 345.40 293.60 L 345.70 293.60 L 345.70 294.30 L 346.10 293.70 L 346.90 293.50 Z M 346.90 296.60 L 347.40 296.50 L 347.80 295.70 L 347.70 294.10 L 346.90 293.70 L 345.90 294.10 L 345.70 295.10 L 345.90 296.20 L 346.80 296.60 Z" fill="#c0bfbf" fill-rule="nonzero" node-id="208" stroke="none" target-height="4.5" target-width="2.600006" target-x="345.4" target-y="293.5"></path><path d="M 350.30 293.50 L 350.90 293.50 L 351.40 294.10 L 351.50 296.80 L 351.20 296.80 L 351.20 296.20 L 350.70 296.70 L 349.90 296.80 L 349.10 296.60 L 348.90 295.90 L 349.20 295.10 L 351.20 294.90 L 351.10 294.00 L 349.60 293.80 L 350.00 293.50 Z M 349.90 296.60 L 350.70 296.40 L 351.20 295.80 L 351.20 295.10 L 349.40 295.20 L 349.10 295.80 L 349.30 296.40 L 349.90 296.60 Z" fill="#c0bfbf" fill-rule="nonzero" node-id="210" stroke="none" target-height="3.2999878" target-width="2.600006" target-x="348.9" target-y="293.5"></path><path d="M 355.10 293.50 L 355.00 297.00 L 354.20 297.80 L 353.20 297.90 L 352.90 297.60 L 354.50 297.30 L 354.80 296.00 L 354.40 296.50 L 353.00 296.60 L 352.50 295.80 L 352.50 294.40 L 353.00 293.50 L 353.70 293.40 L 354.50 293.60 L 354.80 294.20 L 354.80 293.50 Z M 353.70 296.50 L 354.60 296.10 L 354.80 295.10 L 354.60 294.10 L 353.70 293.70 L 352.90 294.10 L 352.70 295.10 L 352.90 296.20 L 353.70 296.50 Z" fill="#c0bfbf" fill-rule="nonzero" node-id="212" stroke="none" target-height="4.5" target-width="2.600006" target-x="352.5" target-y="293.4"></path><path d="M 358.60 294.80 L 358.60 295.10 L 356.30 295.30 L 356.50 296.30 L 357.50 296.60 L 358.50 296.40 L 358.50 296.60 L 358.00 296.80 L 356.30 296.40 L 356.00 295.10 L 356.30 293.80 L 357.40 293.40 L 358.40 293.80 L 358.60 294.80 Z M 358.30 294.90 L 358.20 294.00 L 357.40 293.70 L 356.50 294.00 L 356.30 295.00 Z" fill="#c0bfbf" fill-rule="nonzero" node-id="214" stroke="none" target-height="3.399994" target-width="2.600006" target-x="356" target-y="293.4"></path><path d="M 359.60 296.80 L 359.40 296.30 L 359.80 296.40 L 359.60 296.80 Z" fill="#c0bfbf" fill-rule="nonzero" node-id="216" stroke="none" target-height="0.5" target-width="0.3999939" target-x="359.4" target-y="296.3"></path><path d="M 241.00 236.70 L 240.80 239.90 L 240.20 242.90 L 239.20 245.70 L 237.80 248.40 L 234.20 253.10 L 229.50 256.70 L 226.80 258.10 L 224.00 259.10 L 221.00 259.70 L 217.80 259.90 L 214.60 259.70 L 211.60 259.10 L 208.70 258.10 L 206.00 256.70 L 201.40 253.10 L 197.70 248.40 L 196.40 245.70 L 195.40 242.90 L 194.80 239.90 L 194.50 236.70 L 194.80 233.60 L 196.30 227.80 L 199.30 222.50 L 201.40 220.20 L 203.70 218.20 L 208.90 215.20 L 214.70 213.60 L 217.80 213.40 L 220.90 213.60 L 226.70 215.20 L 231.90 218.20 L 234.20 220.20 L 236.30 222.50 L 239.30 227.80 L 240.80 233.60 L 241.00 236.70 Z" fill="#c0bfbf" fill-rule="nonzero" node-id="218" stroke="none" target-height="46.5" target-width="46.5" target-x="194.5" target-y="213.4"></path><path d="M 214.10 225.20 L 221.60 225.20 L 220.80 239.80 L 214.90 239.80 Z M 217.80 250.40 L 215.90 250.30 L 214.80 249.80 L 214.30 248.70 L 214.20 246.90 L 214.30 245.10 L 214.80 244.00 L 215.90 243.50 L 217.80 243.30 L 219.80 243.50 L 220.90 244.00 L 221.40 245.10 L 221.50 246.90 L 221.40 248.70 L 220.90 249.80 L 219.80 250.30 L 217.80 250.40 Z" fill="#ffffff" fill-rule="nonzero" node-id="220" stroke="none" target-height="25.199997" target-width="7.5" target-x="214.1" target-y="225.2"></path><path d="M 355.70 336.20 L 345.60 336.20 L 345.60 326.70 L 344.80 322.50 L 342.70 318.90 L 339.60 316.30 L 337.80 315.40 L 333.60 314.70 L 320.60 314.70 L 316.40 315.40 L 312.90 317.50 L 310.30 320.60 L 308.80 324.50 L 308.60 336.20 L 298.50 336.20 L 297.70 336.40 L 296.70 337.40 L 296.50 379.10 L 297.10 380.50 L 298.50 381.10 L 355.70 381.10 L 357.10 380.50 L 357.70 379.10 L 357.70 338.20 L 357.10 336.80 L 355.70 336.20 Z M 329.30 361.00 L 328.50 372.10 L 325.70 372.10 L 324.90 361.00 L 322.30 359.30 L 320.70 356.70 L 320.40 355.20 L 320.40 353.50 L 320.90 351.90 L 321.70 350.60 L 324.00 348.60 L 327.10 347.90 L 328.70 348.10 L 331.50 349.50 L 333.30 351.90 L 333.80 353.50 L 333.50 356.70 L 331.90 359.30 L 329.30 361.00 Z M 342.10 336.20 L 312.10 336.20 L 312.10 328.40 L 312.70 325.00 L 313.40 323.50 L 314.90 321.50 L 316.90 320.00 L 320.10 318.80 L 332.40 318.60 L 335.80 319.30 L 337.30 320.00 L 339.30 321.50 L 340.80 323.50 L 342.00 326.60 L 342.10 328.40 Z" fill="#c0bfbf" fill-rule="nonzero" node-id="222" stroke="none" target-height="66.399994" target-width="61.200012" target-x="296.5" target-y="314.7"></path></svg>