<?xml version="1.0" standalone="no"?><!DOCTYPE svg PUBLIC "-//W3C//DTD SVG 1.1//EN" "http://www.w3.org/Graphics/SVG/1.1/DTD/svg11.dtd"><svg height="567" node-id="1" sillyvg="true" template-height="567" template-width="567" version="1.1" viewBox="0 0 567 567" width="567" xmlns="http://www.w3.org/2000/svg" xmlns:xlink="http://www.w3.org/1999/xlink"><defs node-id="63"></defs><g node-id="176"><path d="M 376.50 199.90 L 382.80 191.30 L 386.20 391.90 L 376.50 387.10 L 376.50 199.90 Z" fill="#7c7b7c" fill-opacity="0.37" fill-rule="nonzero" group-id="1" node-id="67" stroke="none" target-height="200.59999" target-width="9.700012" target-x="376.5" target-y="191.3"></path><path d="M 180.60 191.30 L 189.30 199.90 L 376.50 199.90 L 382.80 191.30 L 180.60 191.30 Z" fill="#686868" fill-opacity="0.37" fill-rule="nonzero" group-id="1" node-id="69" stroke="none" target-height="8.599991" target-width="202.19998" target-x="180.6" target-y="191.3"></path><path d="M 241.00 391.90 L 386.20 391.90 L 376.50 387.10 L 239.00 387.10 L 241.00 391.90 Z" fill="#8c8b8b" fill-opacity="0.37" fill-rule="nonzero" group-id="1" node-id="71" stroke="none" target-height="4.799988" target-width="147.20001" target-x="239" target-y="387.1"></path><path d="M 175.40 117.20 L 180.20 186.20 L 180.50 187.60 L 182.00 189.80 L 184.30 191.10 L 185.70 191.30 L 379.20 191.10 L 380.40 190.60 L 382.40 188.80 L 383.20 186.20 L 388.30 117.30 L 388.20 115.70 L 387.70 114.40 L 386.80 113.10 L 385.60 112.10 L 384.30 111.50 L 382.80 111.30 L 180.90 111.30 L 179.40 111.50 L 178.10 112.10 L 176.90 113.10 L 176.00 114.30 L 175.50 115.70 L 175.40 117.20 Z" fill="#727272" fill-opacity="0.37" fill-rule="nonzero" group-id="1" node-id="73" stroke="none" target-height="80" target-width="212.9" target-x="175.4" target-y="111.3"></path><path d="M 111.20 388.30 L 116.10 379.20 L 122.10 371.00 L 126.70 366.20 L 131.70 361.80 L 137.10 357.90 L 142.90 354.50 L 148.90 351.70 L 155.20 349.50 L 165.10 347.30 L 175.40 346.50 L 184.00 347.00 L 180.50 195.10 L 180.00 193.70 L 178.10 191.50 L 175.40 190.40 L 114.60 181.10 L 113.20 181.00 L 110.60 181.80 L 109.50 182.60 L 107.80 184.80 L 107.30 187.50 L 110.70 385.60 L 111.20 388.30 Z" fill="#727272" fill-opacity="0.37" fill-rule="nonzero" group-id="1" node-id="75" stroke="none" target-height="207.29999" target-width="76.7" target-x="107.3" target-y="181"></path><path d="M 189.30 347.90 L 189.30 199.90 L 180.60 191.30 L 184.00 347.00 L 189.30 347.90 Z" fill="#7c7b7c" fill-opacity="0.37" fill-rule="nonzero" group-id="1" node-id="77" stroke="none" target-height="156.59999" target-width="8.699997" target-x="180.6" target-y="191.3"></path><path d="M 239.00 387.10 L 376.50 387.10 L 376.50 199.90 L 189.30 199.90 L 189.30 347.90 L 194.70 349.20 L 199.90 350.90 L 204.90 353.00 L 209.80 355.50 L 214.40 358.40 L 218.80 361.60 L 222.90 365.10 L 226.80 368.90 L 230.30 373.00 L 233.50 377.40 L 236.40 382.10 L 239.00 387.10 Z" fill="#c0bfbf" fill-opacity="0.37" fill-rule="nonzero" group-id="1" node-id="79" stroke="none" target-height="187.20001" target-width="187.2" target-x="189.3" target-y="199.9"></path><path d="M 245.10 408.80 L 255.60 407.40 L 260.70 407.30 L 270.80 408.30 L 280.60 410.60 L 285.30 412.30 L 291.30 415.00 L 297.10 418.30 L 302.50 422.20 L 310.00 428.90 L 313.30 432.60 L 319.30 440.90 L 321.80 445.40 L 325.90 455.10 L 329.10 449.40 L 332.70 444.20 L 336.70 439.40 L 341.20 435.00 L 346.00 430.90 L 351.10 427.40 L 356.50 424.30 L 362.20 421.70 L 368.20 419.60 L 374.20 418.10 L 380.50 417.10 L 387.00 416.70 L 386.40 399.70 L 386.10 397.60 L 385.30 395.70 L 384.00 394.20 L 382.40 393.00 L 380.50 392.20 L 378.40 391.90 L 241.00 391.90 L 242.80 397.40 L 244.20 403.10 L 245.10 408.80 Z" fill="#727272" fill-opacity="0.37" fill-rule="nonzero" group-id="1" node-id="81" stroke="none" target-height="63.200012" target-width="146" target-x="241" target-y="391.9"></path><path d="M 383.60 391.80 L 434.80 390.40 L 439.70 386.50 L 444.80 383.00 L 450.20 380.00 L 455.90 377.50 L 461.70 375.50 L 467.80 374.00 L 464.50 182.60 L 464.30 181.70 L 463.70 180.90 L 462.90 180.50 L 407.90 190.00 L 385.30 193.50 L 383.50 192.90 L 382.80 191.20 L 381.30 389.50 L 382.00 391.20 L 383.60 391.80 Z" fill="#727272" fill-opacity="0.37" fill-rule="nonzero" group-id="1" node-id="83" stroke="none" target-height="211.29999" target-width="86.5" target-x="381.3" target-y="180.5"></path></g><path d="M 267.40 285.50 L 263.20 285.50 L 263.20 293.30 L 252.30 293.30 L 252.30 285.50 L 234.60 285.50 L 234.60 274.90 L 250.30 251.70 L 263.20 251.70 L 263.20 276.00 L 267.40 276.00 Z M 252.30 276.00 L 252.30 263.40 L 251.90 263.40 L 244.20 276.00 Z" fill="#c0bfbf" fill-rule="nonzero" node-id="86" stroke="none" target-height="41.59999" target-width="32.799988" target-x="234.6" target-y="251.7"></path><path d="M 287.60 293.90 L 284.20 293.70 L 280.90 293.00 L 279.00 292.20 L 275.90 289.70 L 273.50 285.40 L 272.70 283.10 L 271.90 277.80 L 271.60 272.50 L 271.90 267.20 L 272.70 261.90 L 273.50 259.60 L 275.90 255.40 L 277.40 253.90 L 280.90 252.00 L 284.20 251.30 L 287.60 251.10 L 290.90 251.30 L 294.20 252.00 L 296.10 252.80 L 299.20 255.40 L 300.60 257.40 L 302.30 261.90 L 303.20 267.20 L 303.40 272.50 L 303.20 277.80 L 302.30 283.10 L 301.60 285.40 L 299.20 289.70 L 297.70 291.10 L 294.20 293.00 L 290.90 293.70 L 287.60 293.90 Z M 287.60 284.20 L 289.90 283.70 L 290.80 283.00 L 291.40 282.00 L 292.20 278.40 L 292.40 272.50 L 291.90 264.80 L 290.80 261.90 L 289.90 261.20 L 288.80 260.80 L 286.40 260.80 L 285.20 261.20 L 284.30 261.90 L 283.20 264.80 L 282.90 266.60 L 282.70 272.50 L 283.20 280.20 L 284.30 283.00 L 285.20 283.70 L 287.60 284.20 Z" fill="#c0bfbf" fill-rule="nonzero" node-id="88" stroke="none" target-height="42.799988" target-width="31.799988" target-x="271.6" target-y="251.1"></path><path d="M 339.60 285.50 L 335.40 285.50 L 335.40 293.30 L 324.50 293.30 L 324.50 285.50 L 306.80 285.50 L 306.80 274.90 L 322.50 251.70 L 335.40 251.70 L 335.40 276.00 L 339.60 276.00 Z M 324.50 276.00 L 324.50 263.40 L 324.10 263.40 L 316.40 276.00 Z" fill="#c0bfbf" fill-rule="nonzero" node-id="90" stroke="none" target-height="41.59999" target-width="32.80002" target-x="306.8" target-y="251.7"></path><path d="M 417.70 162.70 L 417.30 160.90 L 416.40 159.30 L 414.90 158.00 L 413.00 157.00 L 410.90 156.30 L 408.40 156.10 L 406.00 156.30 L 403.80 157.00 L 401.90 158.00 L 400.50 159.40 L 399.50 161.00 L 399.20 162.70 L 395.50 164.10 L 393.10 166.40 L 392.50 167.80 L 392.20 169.30 L 392.50 171.10 L 393.50 172.80 L 394.90 174.10 L 396.80 175.20 L 399.00 175.90 L 401.50 176.10 L 404.10 175.90 L 407.80 174.60 L 409.00 174.60 L 412.70 175.80 L 415.30 176.10 L 417.80 175.90 L 420.00 175.20 L 421.90 174.10 L 423.30 172.70 L 424.30 171.10 L 424.60 169.30 L 424.30 167.80 L 423.70 166.40 L 421.30 164.10 L 417.70 162.70 Z" fill="#dddddd" fill-rule="nonzero" node-id="92" stroke="none" target-height="20" target-width="32.399994" target-x="392.2" target-y="156.1"></path><path d="M 156.50 141.10 L 156.30 139.10 L 155.70 137.20 L 153.30 133.90 L 149.40 131.30 L 144.70 129.70 L 142.00 129.40 L 138.90 129.50 L 136.00 130.00 L 133.50 130.90 L 131.10 132.10 L 129.20 133.60 L 127.80 135.40 L 124.70 132.70 L 122.60 131.60 L 118.10 130.20 L 112.80 129.90 L 107.90 131.00 L 105.70 132.00 L 102.30 134.60 L 101.10 136.20 L 100.30 138.00 L 99.80 140.00 L 96.70 140.70 L 93.90 141.80 L 91.50 143.50 L 89.70 145.40 L 88.20 148.40 L 88.00 150.10 L 88.10 152.10 L 88.70 154.00 L 89.70 155.80 L 92.80 158.80 L 97.20 161.00 L 102.50 162.00 L 105.40 161.90 L 108.20 161.50 L 112.40 160.20 L 113.90 160.10 L 115.40 160.30 L 119.40 162.10 L 122.20 162.80 L 125.00 163.20 L 130.30 162.70 L 137.40 160.10 L 140.40 159.60 L 141.90 159.80 L 145.90 161.60 L 148.60 162.30 L 151.50 162.70 L 154.30 162.60 L 159.20 161.50 L 161.40 160.50 L 164.80 157.80 L 166.00 156.10 L 166.80 154.30 L 167.20 152.30 L 167.10 150.60 L 165.90 147.50 L 164.40 145.40 L 162.20 143.60 L 159.60 142.10 L 156.50 141.10 Z" fill="#dddddd" fill-rule="nonzero" node-id="94" stroke="none" target-height="33.800003" target-width="79.2" target-x="88" target-y="129.4"></path><path d="M 238.00 312.30 L 237.00 314.10 L 237.00 318.90 L 236.60 318.90 L 236.60 314.70 L 235.00 316.60 L 234.90 316.20 L 236.40 314.30 L 237.60 312.20 Z M 235.10 322.10 L 236.50 319.50 L 236.90 319.70 L 235.40 322.30 Z M 240.10 315.80 L 238.10 318.50 L 237.80 318.20 L 239.80 315.60 Z M 238.00 315.30 L 240.10 312.10 L 240.50 312.20 L 239.90 313.50 L 245.10 313.50 L 244.10 315.50 L 243.70 315.30 L 244.70 313.90 L 239.70 313.90 L 238.30 315.60 Z M 242.50 321.40 L 242.50 320.40 L 242.90 320.50 L 242.70 322.10 L 242.10 322.50 L 238.70 322.50 L 238.10 322.00 L 238.00 319.40 L 238.40 319.40 L 238.40 321.70 L 238.80 322.10 L 241.90 322.10 L 242.50 321.40 Z M 240.00 319.10 L 241.30 320.70 L 241.10 320.90 L 239.70 319.40 Z M 242.10 317.70 L 241.80 318.50 L 240.20 318.80 L 240.10 318.40 L 241.50 318.20 L 241.70 314.70 L 242.10 314.70 Z M 245.20 318.40 L 243.10 315.90 L 243.40 315.70 L 245.50 318.20 Z M 243.80 319.30 L 245.60 321.90 L 245.30 322.20 L 243.50 319.50 Z" fill="#c0bfbf" fill-rule="nonzero" node-id="96" stroke="none" target-height="10.399994" target-width="10.700012" target-x="234.9" target-y="312.1"></path><path d="M 250.80 320.00 L 248.60 322.00 L 248.30 321.70 L 248.50 316.60 L 246.80 316.60 L 246.80 316.20 L 249.00 316.20 L 249.00 321.10 L 250.70 319.60 Z M 249.30 315.00 L 247.50 312.90 L 247.80 312.60 L 249.60 314.70 Z M 252.60 314.50 L 252.60 316.80 L 256.30 316.80 L 256.00 321.70 L 255.20 322.40 L 253.60 322.50 L 253.50 322.10 L 255.00 322.00 L 255.70 321.50 L 255.80 317.30 L 252.50 317.30 L 251.90 320.50 L 250.30 323.00 L 250.00 322.70 L 251.60 320.10 L 252.10 314.60 L 250.30 314.60 L 250.30 314.20 L 253.70 314.20 L 253.10 312.30 L 253.50 312.30 L 254.20 314.20 L 257.40 314.20 L 257.40 314.60 Z" fill="#c0bfbf" fill-rule="nonzero" node-id="98" stroke="none" target-height="10.700012" target-width="10.599991" target-x="246.8" target-y="312.3"></path><path d="M 259.60 322.80 L 259.60 314.40 L 260.00 314.40 L 260.00 322.70 Z M 260.00 312.30 L 261.80 314.00 L 261.50 314.40 L 259.80 312.60 Z M 262.00 320.10 L 262.00 315.80 L 266.00 315.80 L 266.00 320.10 Z M 265.70 316.20 L 262.40 316.20 L 262.40 319.70 L 265.70 319.70 Z M 268.40 321.20 L 268.40 321.90 L 267.60 322.50 L 265.70 322.70 L 265.60 322.30 L 267.40 322.10 L 268.00 321.60 L 268.00 313.60 L 262.60 313.60 L 262.60 313.20 L 268.40 313.20 Z" fill="#c0bfbf" fill-rule="nonzero" node-id="100" stroke="none" target-height="10.5" target-width="8.799988" target-x="259.6" target-y="312.3"></path><path d="M 273.40 312.20 L 272.90 314.20 L 274.90 314.20 L 274.90 322.40 L 271.20 322.40 L 271.20 314.20 L 272.40 314.20 L 273.00 312.10 Z M 274.50 314.60 L 271.60 314.60 L 271.60 317.90 L 274.50 317.90 Z M 274.50 322.00 L 274.50 318.30 L 271.60 318.30 L 271.60 322.00 Z M 280.40 314.20 L 280.20 321.80 L 279.50 322.40 L 277.70 322.50 L 277.60 322.10 L 279.20 322.00 L 279.80 321.50 L 279.90 314.60 L 276.50 314.60 L 275.40 316.60 L 275.10 316.40 L 276.90 312.10 L 277.30 312.10 L 276.70 314.20 Z M 278.00 319.20 L 276.10 316.60 L 276.40 316.30 L 278.40 318.90 Z" fill="#c0bfbf" fill-rule="nonzero" node-id="102" stroke="none" target-height="10.399994" target-width="9.199982" target-x="271.2" target-y="312.1"></path><path d="M 287.70 317.20 L 287.40 319.60 L 286.70 320.80 L 285.10 321.80 L 282.50 322.80 L 282.30 322.40 L 284.80 321.50 L 286.30 320.50 L 287.00 319.50 L 287.20 316.50 L 287.70 316.50 Z M 286.80 315.20 L 287.30 313.20 L 282.60 313.20 L 282.60 312.80 L 292.30 312.80 L 292.30 313.20 L 287.80 313.20 L 287.20 315.20 L 291.00 315.20 L 291.00 320.20 L 290.60 320.20 L 290.60 315.60 L 284.20 315.60 L 284.20 320.20 L 283.80 320.20 L 283.80 315.20 Z M 287.80 319.70 L 292.30 322.40 L 292.10 322.80 L 287.60 320.10 Z" fill="#c0bfbf" fill-rule="nonzero" node-id="104" stroke="none" target-height="10" target-width="10" target-x="282.3" target-y="312.8"></path><path d="M 299.40 313.20 L 298.70 315.10 L 303.50 315.10 L 303.50 322.70 L 303.10 322.70 L 303.10 321.90 L 295.40 321.90 L 295.40 322.70 L 295.00 322.70 L 295.00 315.10 L 298.30 315.10 L 299.00 313.20 L 294.20 313.20 L 294.20 312.80 L 304.40 312.80 L 304.40 313.20 Z M 295.40 321.60 L 297.40 321.60 L 297.40 315.40 L 295.40 315.40 Z M 300.60 315.40 L 297.80 315.40 L 297.80 317.20 L 300.60 317.20 Z M 300.60 317.60 L 297.80 317.60 L 297.80 319.40 L 300.60 319.40 Z M 297.80 321.60 L 300.60 321.60 L 300.60 319.80 L 297.80 319.80 Z M 303.10 315.50 L 301.00 315.50 L 301.00 321.60 L 303.10 321.60 Z" fill="#c0bfbf" fill-rule="nonzero" node-id="106" stroke="none" target-height="9.900024" target-width="10.199982" target-x="294.2" target-y="312.8"></path><path d="M 312.30 313.50 L 309.80 317.10 L 306.30 320.30 L 306.00 320.00 L 309.40 317.00 L 311.70 313.60 L 306.30 313.60 L 306.30 313.10 L 316.00 313.10 L 316.00 313.60 Z M 311.00 315.60 L 311.40 315.60 L 311.40 322.80 L 311.00 322.80 Z M 312.30 316.10 L 316.30 319.80 L 316.00 320.20 L 312.00 316.50 Z" fill="#c0bfbf" fill-rule="nonzero" node-id="108" stroke="none" target-height="9.699982" target-width="10.299988" target-x="306" target-y="313.1"></path><path d="M 321.70 314.10 L 320.20 316.60 L 320.20 322.90 L 319.80 322.90 L 319.80 317.10 L 317.80 319.40 L 317.60 319.00 L 319.60 316.70 L 321.20 314.10 L 318.00 314.10 L 318.00 313.70 L 321.40 313.70 L 321.90 312.10 L 322.40 312.20 L 321.80 313.70 L 328.20 313.70 L 328.20 314.10 Z M 328.40 319.30 L 325.00 319.30 L 325.00 321.60 L 324.70 322.40 L 322.70 322.80 L 322.50 322.40 L 324.10 322.20 L 324.50 321.90 L 324.50 319.30 L 321.00 319.30 L 321.00 318.90 L 324.50 318.90 L 324.50 317.90 L 326.80 316.30 L 321.90 316.30 L 321.90 315.90 L 327.40 315.90 L 327.40 316.30 L 325.00 318.10 L 325.00 318.90 L 328.40 318.90 Z" fill="#c0bfbf" fill-rule="nonzero" node-id="110" stroke="none" target-height="10.799988" target-width="10.799988" target-x="317.6" target-y="312.1"></path><path d="M 333.40 314.20 L 331.80 317.00 L 331.80 322.80 L 331.40 322.80 L 331.40 317.60 L 329.40 319.70 L 329.20 319.40 L 331.20 317.00 L 332.90 314.10 L 329.60 314.10 L 329.60 313.70 L 333.10 313.70 L 333.80 312.00 L 334.20 312.10 L 333.60 313.70 L 339.70 313.70 L 339.70 314.10 Z M 339.90 321.50 L 339.90 321.90 L 332.30 321.90 L 332.30 321.50 L 335.80 321.50 L 335.80 317.90 L 332.90 317.90 L 332.90 317.50 L 335.80 317.50 L 335.80 315.30 L 336.20 315.30 L 336.20 317.50 L 339.30 317.50 L 339.30 317.90 L 336.20 317.90 L 336.20 321.50 Z" fill="#c0bfbf" fill-rule="nonzero" node-id="112" stroke="none" target-height="10.799988" target-width="10.699982" target-x="329.2" target-y="312"></path><path d="M 235.50 297.50 L 264.50 297.50 L 264.50 299.20 L 235.50 299.20 Z" fill="#c0bfbf" fill-rule="nonzero" node-id="114" stroke="none" target-height="1.7000122" target-width="29" target-x="235.5" target-y="297.5"></path><path d="M 264.50 297.80 L 339.70 297.80 L 339.70 298.80 L 264.50 298.80 Z" fill="#c0bfbf" fill-rule="nonzero" node-id="116" stroke="none" target-height="1" target-width="75.20001" target-x="264.5" target-y="297.8"></path><path d="M 241.90 333.30 L 240.60 333.30 L 240.60 337.20 L 240.40 337.20 L 240.40 333.30 L 239.00 333.30 L 239.00 333.00 L 241.90 333.00 Z" fill="#c0bfbf" fill-rule="nonzero" node-id="118" stroke="none" target-height="4.200012" target-width="2.899994" target-x="239" target-y="333"></path><path d="M 243.90 333.90 L 244.40 333.90 L 244.90 334.50 L 244.90 337.20 L 244.60 337.20 L 244.60 334.60 L 243.90 334.10 L 243.00 334.50 L 242.80 337.10 L 242.50 337.10 L 242.50 332.60 L 242.80 332.60 L 242.80 334.50 L 243.20 334.00 L 243.90 333.90 Z" fill="#c0bfbf" fill-rule="nonzero" node-id="120" stroke="none" target-height="4.600006" target-width="2.399994" target-x="242.5" target-y="332.6"></path><path d="M 248.40 335.20 L 248.40 335.50 L 246.10 335.70 L 246.40 336.70 L 247.30 337.00 L 248.30 336.80 L 247.90 337.10 L 246.20 336.80 L 245.80 335.50 L 246.20 334.10 L 247.20 333.80 L 248.20 334.20 L 248.40 335.20 Z M 248.20 335.30 L 248.00 334.40 L 247.20 334.10 L 246.40 334.40 L 246.10 335.40 Z" fill="#c0bfbf" fill-rule="nonzero" node-id="122" stroke="none" target-height="3.3000183" target-width="2.5999908" target-x="245.8" target-y="333.8"></path><path d="M 252.20 333.90 L 253.20 334.30 L 253.40 336.20 L 252.80 337.10 L 252.20 337.20 L 251.40 337.00 L 251.00 336.50 L 251.00 338.40 L 250.80 338.40 L 250.80 333.90 L 251.00 333.90 L 251.00 334.60 L 251.40 334.10 L 252.20 333.90 Z M 252.20 337.00 L 253.00 336.60 L 253.20 334.90 L 252.70 334.20 L 251.70 334.20 L 251.10 335.00 L 251.10 336.10 L 251.70 336.90 L 252.20 337.00 Z" fill="#c0bfbf" fill-rule="nonzero" node-id="124" stroke="none" target-height="4.5" target-width="2.5999908" target-x="250.8" target-y="333.9"></path><path d="M 255.70 333.90 L 256.30 334.00 L 256.80 334.50 L 256.80 337.20 L 256.60 337.20 L 256.60 336.60 L 256.10 337.10 L 254.90 337.20 L 254.20 336.30 L 254.60 335.50 L 256.60 335.30 L 256.50 334.40 L 255.00 334.20 L 255.00 334.00 L 255.70 333.90 Z M 255.30 337.00 L 256.10 336.80 L 256.60 336.20 L 256.60 335.50 L 254.70 335.60 L 254.50 336.30 L 254.60 336.80 L 255.30 337.00 Z" fill="#c0bfbf" fill-rule="nonzero" node-id="126" stroke="none" target-height="3.3000183" target-width="2.5999908" target-x="254.2" target-y="333.9"></path><path d="M 260.50 333.90 L 260.40 337.50 L 259.60 338.20 L 258.20 338.30 L 258.20 338.00 L 259.90 337.80 L 260.20 336.40 L 259.80 336.90 L 259.10 337.10 L 258.10 336.70 L 257.80 335.50 L 258.10 334.30 L 258.50 333.90 L 259.50 333.90 L 260.20 334.60 L 260.20 333.90 Z M 259.10 336.90 L 260.00 336.50 L 260.20 335.50 L 259.60 334.20 L 258.60 334.20 L 258.30 334.50 L 258.10 336.10 L 258.30 336.60 L 259.10 336.90 Z" fill="#c0bfbf" fill-rule="nonzero" node-id="128" stroke="none" target-height="4.399994" target-width="2.7000122" target-x="257.8" target-y="333.9"></path><path d="M 263.90 335.20 L 263.90 335.50 L 261.70 335.70 L 261.90 336.70 L 262.80 337.00 L 263.80 336.80 L 263.40 337.10 L 261.70 336.80 L 261.40 335.50 L 261.70 334.10 L 262.80 333.80 L 263.80 334.20 L 263.90 335.20 Z M 263.70 335.30 L 263.60 334.40 L 262.80 334.10 L 261.90 334.40 L 261.70 335.40 Z" fill="#c0bfbf" fill-rule="nonzero" node-id="130" stroke="none" target-height="3.3000183" target-width="2.5" target-x="261.4" target-y="333.8"></path><path d="M 266.00 338.10 L 266.60 337.90 L 267.00 337.20 L 265.70 333.90 L 266.00 333.90 L 267.20 336.80 L 268.20 333.90 L 268.40 333.90 L 267.00 337.70 L 265.90 338.40 Z" fill="#c0bfbf" fill-rule="nonzero" node-id="132" stroke="none" target-height="4.5" target-width="2.6999817" target-x="265.7" target-y="333.9"></path><path d="M 270.30 337.20 L 269.30 336.90 L 269.00 336.30 L 269.00 334.80 L 269.70 334.00 L 271.00 334.00 L 271.60 334.80 L 271.40 336.90 L 270.30 337.20 Z M 270.30 337.00 L 270.90 336.90 L 271.40 336.20 L 271.20 334.40 L 269.80 334.20 L 269.50 334.40 L 269.20 335.60 L 269.50 336.70 L 270.30 337.00 Z" fill="#c0bfbf" fill-rule="nonzero" node-id="134" stroke="none" target-height="3.2000122" target-width="2.600006" target-x="269" target-y="334"></path><path d="M 275.00 333.90 L 275.00 337.20 L 274.70 336.60 L 274.00 337.20 L 273.20 337.10 L 272.70 336.60 L 272.60 333.90 L 272.90 333.90 L 272.90 336.40 L 273.70 337.00 L 274.30 336.80 L 274.70 336.20 L 274.70 333.90 Z" fill="#c0bfbf" fill-rule="nonzero" node-id="136" stroke="none" target-height="3.3000183" target-width="2.399994" target-x="272.6" target-y="333.9"></path><path d="M 277.00 333.90 L 277.30 333.90 L 278.40 336.90 L 279.50 333.90 L 279.80 333.90 L 278.50 337.20 L 278.20 337.20 Z" fill="#c0bfbf" fill-rule="nonzero" node-id="138" stroke="none" target-height="3.3000183" target-width="2.7999878" target-x="277" target-y="333.9"></path><path d="M 280.50 333.20 L 280.40 332.90 L 280.70 332.90 L 280.50 333.20 Z M 280.40 333.90 L 280.70 333.90 L 280.70 337.20 L 280.40 337.20 Z" fill="#c0bfbf" fill-rule="nonzero" node-id="140" stroke="none" target-height="4.3000183" target-width="0.3000183" target-x="280.4" target-y="332.9"></path><path d="M 282.50 337.20 L 281.60 337.10 L 281.60 336.90 L 283.10 336.80 L 283.40 336.10 L 281.90 335.30 L 281.70 334.70 L 282.00 334.10 L 282.70 333.90 L 283.60 333.90 L 283.60 334.20 L 282.20 334.30 L 282.00 335.00 L 283.40 335.70 L 283.60 336.30 L 283.40 337.00 L 282.50 337.20 Z" fill="#c0bfbf" fill-rule="nonzero" node-id="142" stroke="none" target-height="3.3000183" target-width="2" target-x="281.6" target-y="333.9"></path><path d="M 284.70 333.20 L 284.50 332.90 L 284.80 332.90 L 284.70 333.20 Z M 284.50 333.90 L 284.80 333.90 L 284.80 337.20 L 284.50 337.20 Z" fill="#c0bfbf" fill-rule="nonzero" node-id="144" stroke="none" target-height="4.3000183" target-width="0.2999878" target-x="284.5" target-y="332.9"></path><path d="M 286.70 337.00 L 287.20 337.00 L 287.20 337.20 L 286.10 337.10 L 286.00 334.30 L 285.40 334.30 L 285.40 334.00 L 286.00 334.00 L 286.00 333.30 L 286.20 333.30 L 286.20 334.00 L 287.10 334.00 L 287.10 334.30 L 286.20 334.30 L 286.20 336.60 L 286.70 337.00 Z" fill="#c0bfbf" fill-rule="nonzero" node-id="146" stroke="none" target-height="3.9000244" target-width="1.8000183" target-x="285.4" target-y="333.3"></path><path d="M 290.10 335.20 L 290.10 335.50 L 287.80 335.70 L 288.10 336.70 L 289.00 337.00 L 290.00 336.80 L 289.60 337.10 L 287.90 336.80 L 287.50 335.50 L 287.90 334.10 L 288.90 333.80 L 289.90 334.20 L 290.10 335.20 Z M 289.80 335.30 L 289.70 334.40 L 288.90 334.10 L 288.10 334.40 L 287.80 335.40 Z" fill="#c0bfbf" fill-rule="nonzero" node-id="148" stroke="none" target-height="3.3000183" target-width="2.600006" target-x="287.5" target-y="333.8"></path><path d="M 293.60 332.60 L 293.60 337.20 L 293.30 337.20 L 293.30 336.40 L 293.00 337.00 L 292.20 337.20 L 291.20 336.80 L 291.00 334.90 L 291.60 334.00 L 292.20 333.90 L 293.00 334.10 L 293.30 334.60 L 293.30 332.60 Z M 292.20 337.00 L 292.70 336.90 L 293.30 336.10 L 293.10 334.50 L 292.70 334.20 L 291.70 334.20 L 291.20 335.00 L 291.40 336.60 L 292.20 337.00 Z" fill="#c0bfbf" fill-rule="nonzero" node-id="150" stroke="none" target-height="4.600006" target-width="2.600006" target-x="291" target-y="332.6"></path><path d="M 298.60 332.60 L 298.60 337.20 L 298.40 337.20 L 298.40 336.40 L 298.00 337.00 L 297.20 337.20 L 296.20 336.80 L 296.00 334.90 L 296.60 334.00 L 297.20 333.90 L 298.00 334.10 L 298.40 334.60 L 298.40 332.60 Z M 297.20 337.00 L 297.80 336.90 L 298.30 336.10 L 298.10 334.50 L 297.30 334.10 L 296.80 334.20 L 296.30 335.00 L 296.50 336.60 L 297.20 337.00 Z" fill="#c0bfbf" fill-rule="nonzero" node-id="152" stroke="none" target-height="4.600006" target-width="2.600006" target-x="296" target-y="332.6"></path><path d="M 300.90 337.20 L 299.90 336.90 L 299.60 336.30 L 299.60 334.80 L 300.30 334.00 L 301.60 334.00 L 302.30 334.80 L 302.00 336.90 L 300.90 337.20 Z M 300.90 337.00 L 301.50 336.90 L 302.00 336.20 L 301.80 334.40 L 300.40 334.20 L 300.10 334.40 L 299.80 335.60 L 300.10 336.70 L 300.90 337.00 Z" fill="#c0bfbf" fill-rule="nonzero" node-id="154" stroke="none" target-height="3.2000122" target-width="2.6999817" target-x="299.6" target-y="334"></path><path d="M 305.60 335.20 L 305.60 335.50 L 303.30 335.70 L 303.60 336.70 L 304.50 337.00 L 305.50 336.80 L 305.10 337.10 L 303.40 336.80 L 303.10 335.50 L 303.40 334.10 L 304.50 333.80 L 305.50 334.20 L 305.60 335.20 Z M 305.40 335.30 L 305.20 334.40 L 304.50 334.10 L 303.60 334.40 L 303.40 335.40 Z" fill="#c0bfbf" fill-rule="nonzero" node-id="156" stroke="none" target-height="3.3000183" target-width="2.5" target-x="303.1" target-y="333.8"></path><path d="M 307.30 337.20 L 306.40 337.10 L 306.40 336.90 L 307.90 336.80 L 308.20 336.10 L 306.70 335.30 L 306.50 334.70 L 306.80 334.10 L 307.50 333.90 L 308.40 333.90 L 308.40 334.20 L 307.00 334.30 L 306.80 335.00 L 308.20 335.70 L 308.40 336.30 L 308.20 337.00 L 307.30 337.20 Z" fill="#c0bfbf" fill-rule="nonzero" node-id="158" stroke="none" target-height="3.3000183" target-width="2" target-x="306.4" target-y="333.9"></path><path d="M 312.10 333.90 L 312.60 333.90 L 313.10 334.50 L 313.10 337.20 L 312.90 337.20 L 312.90 334.60 L 312.10 334.10 L 311.20 334.50 L 311.00 337.10 L 310.80 337.10 L 310.80 333.90 L 311.00 333.90 L 311.00 334.50 L 311.70 333.90 Z" fill="#c0bfbf" fill-rule="nonzero" node-id="160" stroke="none" target-height="3.3000183" target-width="2.3000183" target-x="310.8" target-y="333.9"></path><path d="M 315.40 337.20 L 314.40 336.90 L 314.10 336.30 L 314.10 334.80 L 314.80 334.00 L 316.10 334.00 L 316.70 334.80 L 316.50 336.90 L 315.40 337.20 Z M 315.40 337.00 L 316.30 336.70 L 316.50 335.60 L 316.50 334.90 L 316.00 334.20 L 314.60 334.40 L 314.40 336.20 L 314.60 336.70 L 315.40 337.00 Z" fill="#c0bfbf" fill-rule="nonzero" node-id="162" stroke="none" target-height="3.2000122" target-width="2.600006" target-x="314.1" target-y="334"></path><path d="M 318.60 337.00 L 319.00 337.00 L 319.00 337.20 L 317.90 337.10 L 317.80 334.30 L 317.30 334.30 L 317.30 334.00 L 317.80 334.00 L 318.00 333.30 L 318.00 334.00 L 318.90 334.00 L 318.90 334.30 L 318.00 334.30 L 318.00 336.60 L 318.60 337.00 Z" fill="#c0bfbf" fill-rule="nonzero" node-id="164" stroke="none" target-height="3.9000244" target-width="1.7000122" target-x="317.3" target-y="333.3"></path><path d="M 323.40 335.20 L 323.40 335.50 L 321.10 335.70 L 321.30 336.70 L 322.20 337.00 L 323.30 336.80 L 322.80 337.10 L 321.10 336.80 L 320.80 335.50 L 321.10 334.10 L 322.20 333.80 L 323.20 334.20 L 323.40 335.20 Z M 323.10 335.30 L 323.00 334.40 L 322.20 334.10 L 321.30 334.40 L 321.10 335.40 Z" fill="#c0bfbf" fill-rule="nonzero" node-id="166" stroke="none" target-height="3.3000183" target-width="2.600006" target-x="320.8" target-y="333.8"></path><path d="M 324.90 335.50 L 323.90 333.90 L 324.20 333.90 L 325.10 335.40 L 326.00 333.90 L 326.30 333.90 L 325.30 335.50 L 326.40 337.20 L 326.10 337.20 L 325.10 335.70 L 324.10 337.20 L 323.80 337.20 Z" fill="#c0bfbf" fill-rule="nonzero" node-id="168" stroke="none" target-height="3.3000183" target-width="2.600006" target-x="323.8" target-y="333.9"></path><path d="M 327.20 333.20 L 327.00 332.90 L 327.30 332.90 L 327.20 333.20 Z M 327.10 333.90 L 327.30 333.90 L 327.30 337.20 L 327.10 337.20 Z" fill="#c0bfbf" fill-rule="nonzero" node-id="170" stroke="none" target-height="4.3000183" target-width="0.2999878" target-x="327" target-y="332.9"></path><path d="M 329.20 337.20 L 328.20 337.10 L 328.20 336.90 L 329.80 336.80 L 330.00 336.10 L 328.60 335.30 L 328.30 334.70 L 328.60 334.10 L 329.40 333.90 L 330.20 333.90 L 330.20 334.20 L 328.80 334.30 L 328.70 335.00 L 330.10 335.70 L 330.30 336.30 L 330.10 337.00 L 329.20 337.20 Z" fill="#c0bfbf" fill-rule="nonzero" node-id="172" stroke="none" target-height="3.3000183" target-width="2.0999756" target-x="328.2" target-y="333.9"></path><path d="M 332.00 337.00 L 332.40 337.00 L 332.40 337.20 L 331.40 337.10 L 331.20 334.30 L 330.70 334.30 L 330.70 334.00 L 331.20 334.00 L 331.20 333.30 L 331.50 333.30 L 331.50 334.00 L 332.40 334.00 L 332.40 334.30 L 331.50 334.30 L 331.50 336.60 L 332.00 337.00 Z" fill="#c0bfbf" fill-rule="nonzero" node-id="174" stroke="none" target-height="3.9000244" target-width="1.6999817" target-x="330.7" target-y="333.3"></path></svg>