<?xml version="1.0" standalone="no"?><!DOCTYPE svg PUBLIC "-//W3C//DTD SVG 1.1//EN" "http://www.w3.org/Graphics/SVG/1.1/DTD/svg11.dtd"><svg height="1024" node-id="1" sillyvg="true" template-height="1024" template-width="1024" version="1.1" viewBox="0 0 1024 1024" width="1024" xmlns="http://www.w3.org/2000/svg" xmlns:xlink="http://www.w3.org/1999/xlink"><defs node-id="101"><linearGradient gradientUnits="objectBoundingBox" id="linearGradient-1" node-id="5" spreadMethod="pad" x1="0.34655145" x2="0.5" y1="0.2323515" y2="0.63644415"><stop offset="0" stop-color="#e6e8ed"></stop><stop offset="1" stop-color="#ffffff"></stop></linearGradient><linearGradient gradientUnits="objectBoundingBox" id="linearGradient-2" node-id="8" spreadMethod="pad" x1="0.34655145" x2="0.5" y1="0.2323515" y2="0.63644415"><stop offset="0" stop-color="#e6e8ed"></stop><stop offset="1" stop-color="#ffffff"></stop></linearGradient><linearGradient gradientUnits="objectBoundingBox" id="linearGradient-3" node-id="11" spreadMethod="pad" x1="0.5" x2="0.5" y1="0" y2="1"><stop offset="0" stop-color="#f2f4f8"></stop><stop offset="1" stop-color="#ffffff"></stop></linearGradient><linearGradient gradientUnits="objectBoundingBox" id="linearGradient-4" node-id="14" spreadMethod="pad" x1="0.21524939" x2="0.94385934" y1="0.25918522" y2="0.7342094"><stop offset="0" stop-color="#7bccd9"></stop><stop offset="1" stop-color="#1d90a2"></stop></linearGradient><linearGradient gradientUnits="objectBoundingBox" id="linearGradient-5" node-id="17" spreadMethod="pad" x1="0.6827403" x2="0.5" y1="0" y2="1"><stop offset="0" stop-color="#cccfdd"></stop><stop offset="1" stop-color="#dde1e7"></stop></linearGradient><linearGradient gradientUnits="objectBoundingBox" id="linearGradient-6" node-id="20" spreadMethod="pad" x1="0.6714666" x2="0.5" y1="0" y2="1"><stop offset="0" stop-color="#f5f8fc"></stop><stop offset="1" stop-color="#f1f2f6"></stop></linearGradient><linearGradient gradientUnits="objectBoundingBox" id="linearGradient-7" node-id="23" spreadMethod="pad" x1="0.5" x2="0.24872357" y1="0.104522906" y2="0.7513314"><stop offset="0" stop-color="#c9cdd8"></stop><stop offset="1" stop-color="#dbdfe7"></stop></linearGradient><linearGradient gradientUnits="objectBoundingBox" id="linearGradient-8" node-id="26" spreadMethod="pad" x1="0.64030385" x2="0.45630562" y1="0.14772628" y2="0.83885646"><stop offset="0" stop-color="#dee2ed"></stop><stop offset="1" stop-color="#eaeef3"></stop></linearGradient><linearGradient gradientUnits="objectBoundingBox" id="linearGradient-9" node-id="29" spreadMethod="pad" x1="0.7935573" x2="0.29106426" y1="0.51189685" y2="0.49290276"><stop offset="0" stop-color="#dbdfe7"></stop><stop offset="1" stop-color="#ced2dc"></stop></linearGradient><linearGradient gradientUnits="objectBoundingBox" id="linearGradient-10" node-id="32" spreadMethod="pad" x1="0.5634468" x2="0.31001654" y1="0.22749491" y2="0.8811564"><stop offset="0" stop-color="#cdd0de"></stop><stop offset="1" stop-color="#e2e4e8"></stop></linearGradient><linearGradient gradientUnits="objectBoundingBox" id="linearGradient-11" node-id="35" spreadMethod="pad" x1="0.5" x2="0.5" y1="0" y2="1"><stop offset="0" stop-color="#f5f8fc"></stop><stop offset="1" stop-color="#f1f2f6"></stop></linearGradient><linearGradient gradientUnits="objectBoundingBox" id="linearGradient-12" node-id="38" spreadMethod="pad" x1="0.1224415" x2="0.82428175" y1="0.20328428" y2="0.59747404"><stop offset="0" stop-color="#dfe1e6"></stop><stop offset="0.5720704" stop-color="#e9ebef"></stop><stop offset="1" stop-color="#dfe1e6"></stop></linearGradient><linearGradient gradientUnits="objectBoundingBox" id="linearGradient-13" node-id="42" spreadMethod="pad" x1="0.6567407" x2="0.5" y1="0" y2="1"><stop offset="0" stop-color="#cccfdd"></stop><stop offset="1" stop-color="#dde1e7"></stop></linearGradient><linearGradient gradientUnits="objectBoundingBox" id="linearGradient-14" node-id="45" spreadMethod="pad" x1="0.61637485" x2="0.46375775" y1="0.14772628" y2="0.83885646"><stop offset="0" stop-color="#dee2ed"></stop><stop offset="1" stop-color="#eaeef3"></stop></linearGradient><linearGradient gradientUnits="objectBoundingBox" id="linearGradient-15" node-id="48" spreadMethod="pad" x1="0.65508467" x2="0.5" y1="0" y2="1"><stop offset="0" stop-color="#f5f8fd"></stop><stop offset="1" stop-color="#f0f1f5"></stop></linearGradient><linearGradient gradientUnits="objectBoundingBox" id="linearGradient-16" node-id="51" spreadMethod="pad" x1="0.5" x2="0.28841883" y1="0" y2="0.81775725"><stop offset="0" stop-color="#c9cdd8"></stop><stop offset="1" stop-color="#dbdfe7"></stop></linearGradient><linearGradient gradientUnits="objectBoundingBox" id="linearGradient-17" node-id="54" spreadMethod="pad" x1="0.7935573" x2="0.29106426" y1="0.53498995" y2="0.47912613"><stop offset="0" stop-color="#dbdfe7"></stop><stop offset="1" stop-color="#ced2dc"></stop></linearGradient><linearGradient gradientUnits="objectBoundingBox" id="linearGradient-18" node-id="57" spreadMethod="pad" x1="0.8569877" x2="-0.030270576" y1="0.3897601" y2="0.5340211"><stop offset="0" stop-color="#ced2dc"></stop><stop offset="1" stop-color="#eaeef3"></stop></linearGradient></defs><path d="M 149.50 388.60 L 142.30 380.80 L 136.50 373.60 L 131.90 367.10 L 128.50 361.20 L 126.00 355.80 L 124.30 350.90 L 123.30 346.40 L 123.00 342.30 L 123.30 338.40 L 124.10 334.80 L 125.50 331.40 L 127.50 328.00 L 130.10 324.80 L 133.40 321.70 L 137.50 318.70 L 142.60 315.80 L 148.70 313.00 L 156.00 310.40 L 165.60 307.50 L 174.20 299.40 L 183.50 292.00 L 191.20 287.30 L 199.90 283.50 L 204.70 282.20 L 209.70 281.30 L 217.50 281.10 L 221.60 281.50 L 230.10 283.60 L 234.50 285.30 L 239.10 287.60 L 243.90 290.50 L 248.40 293.70 L 253.10 297.60 L 265.50 310.00 L 276.90 320.00 L 281.10 324.10 L 287.80 331.90 L 291.90 338.70 L 293.40 342.30 L 294.50 346.10 L 295.00 350.00 L 294.60 355.80 L 292.60 362.20 L 291.00 365.20 L 286.10 371.60 L 282.60 375.20 L 274.70 381.50 L 263.30 388.60 L 253.60 393.60 L 244.40 397.70 L 235.60 401.00 L 227.10 403.50 L 219.00 405.30 L 211.20 406.40 L 203.60 406.90 L 196.30 406.70 L 189.20 405.90 L 182.30 404.60 L 175.50 402.70 L 168.90 400.10 L 162.30 396.90 L 155.90 393.10 L 149.50 388.60 Z" fill="url(#linearGradient-1)" fill-rule="evenodd" id="路径-212" node-id="61" stroke="none" target-height="125.79999" target-width="172" target-x="123" target-y="281.1"></path><path d="M 823.70 400.40 L 818.80 394.90 L 815.10 390.10 L 812.60 385.80 L 811.00 382.10 L 810.10 378.80 L 809.80 375.80 L 810.20 373.10 L 811.00 370.70 L 812.40 368.30 L 814.50 366.10 L 817.30 363.90 L 820.90 361.80 L 825.70 359.90 L 832.20 357.80 L 837.90 352.60 L 844.10 348.10 L 847.80 346.20 L 852.00 344.80 L 854.90 344.20 L 858.00 344.00 L 861.30 344.20 L 864.60 344.90 L 868.10 346.20 L 871.90 348.10 L 875.40 350.50 L 879.20 353.80 L 883.40 358.10 L 893.50 367.40 L 896.20 370.70 L 898.40 374.30 L 899.40 376.80 L 899.90 379.50 L 900.00 382.20 L 899.60 384.30 L 897.60 388.60 L 893.80 393.10 L 887.70 397.80 L 883.40 400.40 L 876.50 403.90 L 870.10 406.50 L 864.00 408.30 L 858.30 409.50 L 852.80 410.00 L 847.60 409.90 L 842.60 409.20 L 837.70 407.90 L 832.90 406.00 L 828.30 403.60 L 823.70 400.40 Z" fill="url(#linearGradient-2)" fill-rule="evenodd" id="路径-212备份" node-id="62" stroke="none" target-height="66" target-width="90.20001" target-x="809.8" target-y="344"></path><path d="M 509.60 402.50 L 516.80 402.90 L 523.90 403.80 L 530.60 405.20 L 537.20 407.30 L 543.70 409.90 L 549.80 413.00 L 555.70 416.50 L 561.30 420.60 L 566.50 425.00 L 571.40 429.90 L 576.00 435.10 L 580.20 440.80 L 584.00 446.80 L 587.30 453.00 L 590.20 459.60 L 592.60 466.50 L 594.50 473.50 L 595.90 480.80 L 596.80 488.30 L 597.10 496.00 L 596.80 503.70 L 596.00 511.10 L 594.60 518.30 L 592.70 525.20 L 590.40 532.00 L 587.50 538.50 L 584.30 544.70 L 580.60 550.60 L 576.50 556.30 L 572.10 561.50 L 567.30 566.30 L 562.10 570.80 L 566.80 573.10 L 571.30 575.80 L 575.50 579.00 L 579.40 582.50 L 580.90 575.10 L 582.90 567.90 L 585.40 560.90 L 588.30 554.20 L 591.80 547.70 L 595.70 541.50 L 599.90 535.60 L 604.60 530.00 L 609.70 524.70 L 615.10 519.80 L 620.80 515.30 L 626.90 511.10 L 633.30 507.40 L 639.90 504.10 L 646.80 501.30 L 654.00 498.90 L 661.30 497.00 L 668.90 495.70 L 676.60 494.80 L 684.60 494.50 L 691.70 494.80 L 698.60 495.40 L 705.30 496.50 L 711.90 498.00 L 718.30 499.90 L 726.10 502.80 L 733.60 506.20 L 740.70 510.20 L 747.50 514.70 L 753.90 519.70 L 759.90 525.10 L 765.40 531.00 L 770.50 537.30 L 775.10 544.00 L 779.20 551.00 L 782.70 558.30 L 785.70 566.00 L 787.60 572.30 L 789.10 578.70 L 790.20 585.30 L 790.80 592.10 L 791.10 599.00 L 790.80 606.00 L 790.20 612.80 L 789.10 619.40 L 787.60 625.80 L 785.70 632.10 L 782.70 639.80 L 779.20 647.10 L 775.10 654.10 L 770.50 660.70 L 765.40 667.10 L 759.90 672.90 L 753.90 678.30 L 747.50 683.40 L 740.70 687.90 L 733.60 691.80 L 726.10 695.30 L 718.30 698.20 L 711.90 700.10 L 705.30 701.60 L 698.60 702.60 L 691.70 703.30 L 684.60 703.50 L 677.20 703.30 L 670.00 702.60 L 663.00 701.40 L 656.20 699.80 L 649.40 697.70 L 642.90 695.20 L 636.70 692.40 L 630.60 689.10 L 624.80 685.50 L 619.20 681.60 L 614.00 677.30 L 609.00 672.70 L 604.30 667.70 L 600.00 662.50 L 596.00 657.10 L 592.40 651.30 L 589.90 656.50 L 587.10 661.20 L 583.90 665.60 L 580.20 669.70 L 576.30 673.40 L 572.00 676.70 L 567.50 679.60 L 562.60 682.00 L 557.60 684.00 L 552.40 685.40 L 546.90 686.20 L 541.20 686.50 L 536.60 686.30 L 532.10 685.70 L 523.50 683.50 L 518.00 681.20 L 512.90 678.30 L 508.10 675.00 L 503.60 671.10 L 499.60 666.80 L 495.90 662.00 L 492.80 656.80 L 490.10 651.40 L 488.00 645.50 L 485.80 636.30 L 485.10 626.50 L 485.30 621.10 L 486.00 615.90 L 487.00 610.90 L 488.40 606.10 L 490.30 601.40 L 492.40 596.90 L 494.90 592.70 L 497.70 588.70 L 491.40 587.50 L 485.40 585.90 L 479.50 583.90 L 473.80 581.40 L 474.10 589.50 L 473.80 597.40 L 473.00 605.10 L 471.70 612.50 L 469.90 619.80 L 467.70 627.00 L 465.00 633.90 L 461.80 640.60 L 458.30 647.10 L 454.30 653.30 L 449.90 659.20 L 445.20 664.80 L 440.10 670.10 L 434.70 675.10 L 429.00 679.80 L 423.00 684.00 L 416.60 688.00 L 410.10 691.50 L 403.30 694.60 L 396.20 697.20 L 388.90 699.50 L 381.50 701.20 L 373.90 702.50 L 366.10 703.30 L 358.10 703.50 L 349.70 703.20 L 341.60 702.40 L 333.70 701.00 L 326.00 699.10 L 318.40 696.70 L 311.10 693.80 L 304.10 690.40 L 297.30 686.60 L 290.80 682.40 L 284.70 677.80 L 278.80 672.80 L 273.40 667.40 L 268.30 661.70 L 263.60 655.60 L 259.30 649.30 L 255.40 642.60 L 252.00 635.70 L 249.10 628.50 L 246.60 621.10 L 244.60 613.50 L 242.30 617.10 L 236.90 623.70 L 230.40 629.30 L 226.90 631.60 L 219.10 635.40 L 214.90 636.70 L 210.70 637.70 L 206.20 638.30 L 201.60 638.50 L 196.40 638.30 L 191.50 637.50 L 186.80 636.30 L 182.30 634.60 L 178.00 632.50 L 173.90 630.10 L 170.10 627.20 L 166.60 624.00 L 163.40 620.50 L 160.60 616.70 L 158.10 612.70 L 156.00 608.30 L 154.30 603.80 L 153.10 599.10 L 152.40 594.20 L 152.10 589.00 L 152.40 583.90 L 153.10 579.00 L 154.30 574.30 L 156.00 569.80 L 158.10 565.40 L 160.60 561.30 L 163.40 557.60 L 166.60 554.00 L 170.10 550.80 L 173.90 548.00 L 178.00 545.50 L 182.30 543.40 L 186.80 541.80 L 191.50 540.50 L 196.40 539.80 L 201.60 539.50 L 206.20 539.80 L 210.70 540.40 L 215.00 541.40 L 223.20 544.50 L 230.60 548.90 L 234.00 551.60 L 240.00 557.70 L 244.80 564.90 L 246.80 557.30 L 249.30 549.90 L 252.20 542.80 L 255.70 536.00 L 259.60 529.30 L 263.90 523.00 L 268.60 517.00 L 273.70 511.40 L 279.10 506.00 L 284.90 501.10 L 291.10 496.50 L 297.60 492.30 L 304.30 488.50 L 311.30 485.20 L 318.60 482.30 L 326.10 479.90 L 333.80 478.00 L 341.70 476.70 L 349.70 475.80 L 358.10 475.50 L 367.00 475.90 L 375.60 476.80 L 384.00 478.40 L 392.10 480.50 L 400.10 483.20 L 407.70 486.50 L 415.10 490.20 L 422.10 494.40 L 422.50 486.80 L 423.50 479.40 L 424.90 472.30 L 426.90 465.30 L 429.40 458.50 L 432.30 452.10 L 435.70 445.90 L 439.50 440.10 L 443.70 434.50 L 448.20 429.40 L 453.10 424.60 L 458.40 420.20 L 463.90 416.30 L 469.70 412.80 L 475.80 409.70 L 482.20 407.20 L 488.70 405.20 L 495.50 403.70 L 502.40 402.90 L 509.60 402.50 Z" fill="url(#linearGradient-3)" fill-rule="evenodd" id="形状结合" node-id="63" stroke="none" target-height="301" target-width="639" target-x="152.1" target-y="402.5"></path><g node-id="212"><g node-id="215"><path d="M 238.60 573.50 L 324.80 640.10 L 389.20 654.10 L 381.00 706.80 Z" fill="url(#linearGradient-4)" fill-rule="evenodd" group-id="1,4" id="路径-220" node-id="66" stroke="none" target-height="133.29999" target-width="150.6" target-x="238.6" target-y="573.5"></path><path d="M 238.20 573.50 L 324.20 640.10 L 386.30 654.10 Z" fill="#67b6c3" fill-rule="evenodd" group-id="1,4" id="路径-221" node-id="67" stroke="none" target-height="80.599976" target-width="148.09999" target-x="238.2" target-y="573.5"></path><path d="M 238.40 573.50 L 413.30 660.10 L 466.80 664.30 Z" fill="#67b6c3" fill-rule="evenodd" group-id="1,4" id="路径-222" node-id="68" stroke="none" target-height="90.79999" target-width="228.4" target-x="238.4" target-y="573.5"></path><path d="M 238.60 573.50 L 388.90 655.50 L 381.00 706.80 L 412.50 659.30 Z" fill="#076c7c" fill-rule="evenodd" group-id="1,4" id="路径-223" node-id="69" stroke="none" target-height="133.29999" target-width="173.9" target-x="238.6" target-y="573.5"></path></g><path d="M 593.40 439.00 L 612.20 438.50 L 629.90 438.70 L 646.70 439.50 L 662.50 440.80 L 677.50 442.60 L 691.60 444.90 L 704.90 447.70 L 717.50 450.90 L 729.30 454.50 L 740.50 458.60 L 751.00 463.00 L 760.90 467.90 L 770.20 473.10 L 779.00 478.60 L 787.20 484.60 L 795.00 490.90 L 802.20 497.60 L 809.00 504.70 L 815.40 512.20 L 821.30 520.10 L 826.80 528.40 L 831.80 537.20 L 836.50 546.40 L 840.70 556.20 L 844.40 566.50 L 847.80 577.30 L 850.60 588.80 L 853.00 600.80 L 854.90 613.50 L 854.80 619.70 L 854.30 625.60 L 853.30 631.40 L 851.90 636.90 L 850.00 642.20 L 847.10 648.70 L 843.60 654.90 L 839.60 660.80 L 835.00 666.40 L 830.00 671.60 L 824.50 676.50 L 818.60 681.10 L 812.20 685.40 L 805.60 689.20 L 798.70 692.60 L 791.50 695.70 L 783.90 698.50 L 776.20 700.70 L 768.40 702.60 L 760.50 704.00 L 752.30 705.00 L 744.20 705.60 L 736.00 705.60 L 727.90 705.20 L 719.80 704.40 L 711.70 703.00 L 703.80 701.10 L 696.10 698.70 L 688.50 695.80 L 681.10 692.40 L 674.10 688.40 L 667.30 683.90 L 660.70 678.80 L 657.30 674.80 L 653.00 668.50 L 651.90 665.90 L 651.10 663.00 L 650.90 660.60 L 651.10 658.50 L 651.80 656.60 L 652.90 654.90 L 654.30 653.40 L 658.40 651.00 L 661.70 649.90 L 665.40 649.10 L 669.80 648.80 L 678.80 649.20 L 683.80 650.00 L 693.60 652.60 L 698.40 654.50 L 703.20 656.80 L 707.60 659.40 L 711.70 662.30 L 715.60 665.70 L 718.80 669.30 L 721.60 673.30 L 723.00 678.30 L 723.60 683.10 L 723.70 687.70 L 723.10 692.10 L 721.90 696.50 L 720.10 700.60 L 717.80 704.70 L 715.00 708.60 L 711.50 712.50 L 707.30 716.40 L 703.00 719.70 L 698.10 722.90 L 692.60 726.00 L 686.50 728.90 L 679.70 731.70 L 671.30 734.60 L 662.10 737.20 L 652.00 739.40 L 640.90 741.20 L 630.00 742.50 L 618.40 743.40 L 606.00 743.80 L 592.70 743.70 L 579.80 743.00 L 566.20 741.80 L 551.90 740.10 L 537.00 737.70 L 522.40 734.80 L 507.30 731.20 L 491.70 727.00 L 475.50 722.00 L 462.90 717.70 L 437.00 707.60 L 410.10 695.40" fill="none" group-id="1" id="路径-219" node-id="70" stroke="#1d90a2" stroke-dasharray="3 3" stroke-linecap="butt" stroke-width="2" target-height="305.3" target-width="444.80002" target-x="410.1" target-y="438.5"></path></g><g node-id="213"><g node-id="216"><path d="M 408.90 339.50 L 464.20 362.70 L 465.10 363.20 L 466.00 365.00 L 427.30 552.20 L 464.70 565.40 L 465.80 566.30 L 465.90 567.90 L 454.70 601.80 L 453.40 602.50 L 452.60 602.40 L 419.00 592.00 L 420.80 583.30 L 408.90 640.50 L 350.30 631.80 L 362.20 574.30 L 252.70 540.20 L 248.20 537.20 L 245.50 534.20 L 243.80 531.40 L 242.70 528.30 L 242.00 525.10 L 241.90 521.90 L 242.40 518.70 L 243.40 515.60 L 245.00 512.70 L 247.10 510.00 L 408.90 339.50 Z M 385.40 451.60 L 384.30 450.80 L 381.90 450.10 L 379.40 450.70 L 378.30 451.50 L 314.70 512.60 L 370.90 532.40 L 386.70 456.10 L 386.60 453.80 L 385.60 451.80 Z" fill="url(#linearGradient-5)" fill-rule="evenodd" group-id="2,5" id="形状结合" node-id="73" stroke="none" target-height="301" target-width="224.1" target-x="241.9" target-y="339.5"></path><path d="M 385.90 327.50 L 441.20 350.70 L 442.10 351.20 L 443.00 353.00 L 404.30 540.20 L 441.70 553.40 L 442.80 554.30 L 442.90 555.90 L 431.70 589.80 L 430.40 590.50 L 429.60 590.40 L 395.90 580.60 L 397.80 571.20 L 385.90 628.50 L 327.30 619.80 L 338.80 564.00 L 237.30 534.30 L 232.90 531.60 L 230.20 528.70 L 228.30 526.00 L 227.10 523.00 L 226.30 519.80 L 226.10 516.60 L 226.40 513.40 L 227.30 510.20 L 228.80 507.30 L 230.80 504.40 L 385.90 327.50 Z M 362.40 439.60 L 361.30 438.80 L 358.90 438.10 L 356.40 438.70 L 355.30 439.50 L 291.70 500.60 L 347.90 520.40 L 363.70 444.10 L 363.60 441.80 L 362.60 439.80 Z" fill="url(#linearGradient-6)" fill-rule="evenodd" group-id="2,5" id="形状结合" node-id="74" stroke="none" target-height="301" target-width="216.9" target-x="226.1" target-y="327.5"></path><path d="M 395.80 581.00 L 385.90 628.50 L 408.80 640.50 L 418.80 593.00 L 452.90 602.40 L 431.50 591.00 Z" fill="url(#linearGradient-7)" fill-rule="evenodd" group-id="2,5" id="路径-215" node-id="75" stroke="none" target-height="59.5" target-width="67" target-x="385.9" target-y="581"></path><path d="M 443.50 554.00 L 465.00 565.20 L 465.60 565.70 L 466.10 566.90 L 455.20 601.00 L 454.20 602.20 L 452.70 602.30 L 430.40 590.60 L 440.60 555.20 L 441.60 554.00 L 442.30 553.80 L 443.50 554.00 Z" fill="url(#linearGradient-8)" fill-rule="evenodd" group-id="2,5" id="路径-216" node-id="76" stroke="none" target-height="48.5" target-width="35.700012" target-x="430.4" target-y="553.8"></path><path d="M 327.30 619.80 L 350.30 631.80 L 408.90 640.50 L 385.90 628.50 Z" fill="url(#linearGradient-9)" fill-rule="evenodd" group-id="2,5" id="路径-217" node-id="77" stroke="none" target-height="20.700012" target-width="81.600006" target-x="327.3" target-y="619.8"></path></g><g node-id="217"><g node-id="219"><path d="M 490.40 523.80 L 492.80 522.80 L 541.00 507.30 L 543.30 506.70 L 547.80 506.90 L 551.90 508.60 L 553.70 510.00 L 555.30 511.60 L 556.50 513.60 L 606.90 609.80 L 607.80 612.20 L 608.30 614.70 L 608.30 617.20 L 607.70 619.70 L 606.80 622.00 L 605.40 624.10 L 603.60 625.90 L 599.70 628.00 L 555.60 643.90 L 553.30 644.50 L 548.80 644.50 L 544.60 642.90 L 542.80 641.60 L 541.20 640.00 L 539.80 638.10 L 485.50 541.50 L 484.40 539.10 L 483.90 536.60 L 483.80 534.10 L 484.30 531.60 L 485.20 529.30 L 486.50 527.20 L 488.20 525.30 L 490.40 523.80 Z" fill="none" group-id="2,6,8" id="矩形" node-id="79" stroke="url(#linearGradient-10)" stroke-linecap="butt" stroke-width="26" target-height="137.79999" target-width="124.5" target-x="483.8" target-y="506.7"></path></g><g node-id="220"><path d="M 498.40 504.20 L 500.60 503.30 L 546.60 488.50 L 548.90 488.00 L 553.40 488.20 L 557.50 489.80 L 559.30 491.20 L 560.90 492.90 L 562.10 494.80 L 610.30 586.90 L 611.30 589.40 L 611.80 591.90 L 611.70 594.40 L 611.20 596.90 L 610.30 599.20 L 608.90 601.20 L 607.10 603.00 L 603.10 605.20 L 558.90 620.80 L 556.60 621.40 L 554.30 621.60 L 552.00 621.30 L 547.90 619.70 L 546.00 618.40 L 544.40 616.70 L 543.10 614.70 L 493.10 521.80 L 492.10 519.40 L 491.60 516.90 L 491.60 514.40 L 492.10 512.00 L 493.00 509.60 L 494.40 507.50 L 496.20 505.70 L 498.40 504.20 Z" fill="none" group-id="2,6,9" id="矩形" node-id="80" stroke="url(#linearGradient-11)" stroke-linecap="butt" stroke-width="26" target-height="133.59998" target-width="120.19998" target-x="491.6" target-y="488"></path></g><path d="M 537.70 628.40 L 530.10 646.80 L 532.30 649.60 L 535.10 652.10 L 538.40 654.30 L 542.50 656.30 L 546.40 657.20 L 551.30 657.60 L 560.50 633.80 L 555.00 634.20 L 550.80 634.10 L 547.80 633.70 L 544.90 632.80 L 541.60 631.10 L 537.70 628.40 Z" fill="url(#linearGradient-12)" fill-rule="evenodd" group-id="2,6" id="路径" node-id="81" stroke="none" target-height="29.199951" target-width="30.400024" target-x="530.1" target-y="628.4"></path></g><g node-id="218"><g node-id="221"><path d="M 659.20 492.00 L 693.60 484.60 L 694.60 484.50 L 696.40 485.40 L 741.70 590.10 L 708.50 597.90 L 709.40 600.10 L 741.90 590.70 L 741.70 590.10 L 763.90 584.80 L 765.00 584.90 L 765.70 585.30 L 766.30 586.70 L 767.40 606.60 L 767.10 607.90 L 766.00 608.60 L 751.70 613.50 L 749.60 608.50 L 763.60 641.10 L 731.70 657.00 L 719.20 625.20 L 718.10 625.60 L 717.80 624.90 L 666.60 642.00 L 664.00 642.30 L 660.90 642.20 L 657.50 641.50 L 654.40 640.30 L 651.70 638.60 L 649.20 636.40 L 647.20 633.90 L 645.70 631.00 L 644.60 627.90 L 644.10 624.70 L 644.20 621.20 L 659.20 492.00 Z M 688.60 558.80 L 686.10 558.70 L 683.90 559.20 L 681.80 560.30 L 680.10 561.80 L 678.90 563.80 L 678.10 566.10 L 670.90 606.70 L 708.50 597.90 L 695.40 564.40 L 694.30 562.40 L 692.80 560.80 L 691.00 559.60 L 688.90 558.90 Z" fill="url(#linearGradient-13)" fill-rule="evenodd" group-id="2,7,10" id="形状结合" node-id="84" stroke="none" target-height="172.5" target-width="123.30005" target-x="644.1" target-y="484.5"></path><path d="M 644.10 620.40 L 646.20 604.40 L 646.50 603.70 L 647.60 602.80 L 648.40 602.70 L 649.80 603.50 L 664.20 623.10 L 663.50 642.70 L 658.80 642.00 L 655.60 640.90 L 652.60 639.30 L 650.00 637.20 L 647.80 634.70 L 646.00 631.80 L 644.80 628.70 L 644.10 625.40 L 644.10 620.40 Z" fill="url(#linearGradient-14)" fill-rule="evenodd" group-id="2,7,10" id="路径-216" node-id="85" stroke="none" target-height="40" target-width="20.100037" target-x="644.1" target-y="602.7"></path><path d="M 660.50 472.20 L 694.90 464.80 L 695.90 464.70 L 697.70 465.60 L 743.40 571.20 L 765.60 565.00 L 767.00 565.20 L 768.10 566.40 L 773.90 585.90 L 773.20 587.20 L 772.50 587.60 L 753.20 594.10 L 750.90 588.90 L 764.90 621.30 L 732.90 637.30 L 719.20 605.70 L 668.90 622.60 L 663.80 622.80 L 659.90 622.10 L 656.80 620.90 L 654.00 619.20 L 651.60 617.00 L 649.60 614.50 L 648.00 611.70 L 646.90 608.60 L 646.40 605.30 L 646.40 601.90 L 660.50 472.20 Z M 691.00 550.10 L 688.60 550.00 L 686.30 550.50 L 684.30 551.50 L 682.50 553.00 L 681.30 554.90 L 680.50 557.20 L 673.90 590.60 L 708.60 580.90 L 697.60 555.40 L 696.50 553.60 L 695.10 552.10 L 693.30 550.90 L 691.30 550.20 Z" fill="url(#linearGradient-15)" fill-rule="evenodd" group-id="2,7,10" id="形状结合" node-id="86" stroke="none" target-height="172.59998" target-width="127.5" target-x="646.4" target-y="464.7"></path><path d="M 753.00 593.90 L 764.90 621.30 L 773.70 587.10 Z" fill="url(#linearGradient-16)" fill-rule="evenodd" group-id="2,7,10" id="路径-215" node-id="87" stroke="none" target-height="34.200012" target-width="20.700012" target-x="753" target-y="587.1"></path><path d="M 731.70 657.00 L 732.90 637.30 L 764.90 621.30 L 763.60 641.10 Z" fill="url(#linearGradient-17)" fill-rule="evenodd" group-id="2,7,10" id="路径-217" node-id="88" stroke="none" target-height="35.700012" target-width="33.200012" target-x="731.7" target-y="621.3"></path></g><path d="M 664.40 623.10 L 663.50 642.70 L 668.30 641.80 L 719.40 625.20 L 731.70 657.00 L 732.90 637.30 L 719.40 605.90 L 664.40 623.10 Z" fill="url(#linearGradient-18)" fill-rule="evenodd" group-id="2,7" id="路径-218" node-id="89" stroke="none" target-height="51.099976" target-width="69.400024" target-x="663.5" target-y="605.9"></path></g></g><g node-id="214"><path d="M 520.20 453.90 L 514.50 459.40 L 510.90 463.50 L 508.80 466.40 L 507.80 468.50 L 507.50 470.00 L 513.90 474.40 L 511.90 482.00 L 511.00 487.70 L 510.70 492.00 L 511.00 495.00 L 511.70 497.20 L 512.60 498.70 L 513.90 499.70 L 526.60 500.00 L 534.30 499.90 L 540.30 499.20 L 541.80 498.70 L 542.70 497.70 L 542.50 495.40 L 541.80 493.20 L 538.20 487.20 L 537.70 484.70 L 537.50 480.30 L 537.80 473.50 L 538.80 463.20 L 546.20 463.20 L 542.70 453.90 L 533.60 451.70 L 533.70 459.00 L 533.40 459.80 L 530.20 460.90 L 528.80 460.70 L 526.90 460.00 L 524.90 458.50 L 520.20 453.90 Z" fill="#5b5b5b" fill-rule="evenodd" group-id="3" id="路径-224" node-id="91" stroke="none" target-height="48.299988" target-width="38.700012" target-x="507.5" target-y="451.7"></path><path d="M 525.60 443.10 L 526.00 449.70 L 526.50 451.00 L 527.10 451.60 L 527.70 451.80 L 527.30 452.60 L 525.70 453.80 L 521.80 455.60 L 524.60 458.30 L 526.70 459.90 L 528.40 460.70 L 529.80 460.90 L 532.00 460.60 L 533.90 459.20 L 534.50 458.10 L 535.20 454.80 L 538.20 448.20 L 538.50 446.60 L 538.30 445.00 L 537.30 443.10 L 536.10 441.80 L 534.70 441.00 L 533.00 440.70 L 531.10 440.80 L 528.60 441.60 L 525.60 443.10 Z" fill="#fabdaf" fill-rule="evenodd" group-id="3" id="路径-225" node-id="92" stroke="none" target-height="20.199982" target-width="16.700012" target-x="521.8" target-y="440.7"></path><path d="M 508.60 470.80 L 498.30 501.90 L 494.10 501.80 L 491.50 502.20 L 489.90 502.80 L 489.00 503.50 L 488.60 504.50 L 488.60 506.00 L 489.10 507.30 L 492.30 507.90 L 496.10 507.80 L 495.40 509.80 L 495.40 510.90 L 496.10 510.60 L 502.70 502.80 L 504.80 498.40 L 508.00 489.50 L 513.00 473.70 L 508.60 470.80 Z" fill="#fabdaf" fill-rule="evenodd" group-id="3" id="路径-226" node-id="93" stroke="none" target-height="40.100006" target-width="24.399994" target-x="488.6" target-y="470.8"></path><path d="M 543.00 454.50 L 554.30 451.30 L 561.60 448.70 L 566.10 446.70 L 568.50 445.10 L 569.60 443.80 L 570.60 440.30 L 572.60 439.10 L 575.10 439.20 L 576.00 440.30 L 576.30 441.60 L 576.10 443.00 L 575.40 444.40 L 573.50 445.50 L 571.70 445.80 L 568.60 449.90 L 563.50 455.10 L 559.80 457.80 L 557.10 459.20 L 552.60 460.70 L 545.90 462.40 L 543.00 454.50 Z" fill="#fabdaf" fill-rule="evenodd" group-id="3" id="路径-227" node-id="94" stroke="none" target-height="23.299988" target-width="33.299988" target-x="543" target-y="439.1"></path><path d="M 525.80 441.00 L 527.50 438.80 L 529.20 437.60 L 530.80 437.00 L 532.40 437.00 L 534.20 437.60 L 536.10 438.90 L 546.40 441.00 L 546.40 442.50 L 537.20 442.50 L 534.00 444.10 L 529.10 444.50 L 525.80 444.00 L 524.90 442.80 L 524.80 442.00 L 525.00 441.40 L 525.80 441.00 Z" fill="#5b5b5b" fill-rule="evenodd" group-id="3" id="路径-228" node-id="95" stroke="none" target-height="7.5" target-width="21.600037" target-x="524.8" target-y="437"></path><path d="M 530.50 535.60 L 536.50 539.50 L 540.90 541.60 L 541.30 541.50 L 541.90 540.80 L 542.30 539.90 L 542.00 538.40 L 540.20 536.70 L 538.50 535.70 L 532.10 533.50 L 530.40 533.40 L 529.80 533.70 L 529.70 534.30 L 530.50 535.60 Z" fill="#373c60" fill-rule="evenodd" group-id="3" id="路径-232" node-id="96" stroke="none" target-height="8.199951" target-width="12.599976" target-x="529.7" target-y="533.4"></path><path d="M 512.70 498.50 L 515.70 503.10 L 518.30 506.40 L 520.60 508.60 L 522.60 510.00 L 524.30 510.70 L 527.90 511.00 L 530.60 511.80 L 531.60 512.60 L 532.40 513.90 L 532.90 517.90 L 532.00 525.20 L 525.90 536.80 L 532.00 536.80 L 538.10 527.10 L 542.00 520.10 L 544.30 515.10 L 545.40 511.80 L 545.70 509.60 L 545.50 508.20 L 544.50 506.50 L 542.80 504.70 L 540.10 502.80 L 535.90 500.70 L 530.00 498.50 L 512.70 498.50 Z" fill="#6d747f" fill-rule="evenodd" group-id="3" id="路径-229" node-id="97" stroke="none" target-height="38.299988" target-width="33" target-x="512.7" target-y="498.5"></path><path d="M 530.00 498.50 L 542.50 496.40 L 547.70 499.10 L 551.40 501.50 L 553.70 503.60 L 555.10 505.60 L 555.70 507.40 L 555.80 509.10 L 555.30 510.90 L 553.40 514.10 L 549.60 519.10 L 543.00 526.50 L 532.60 537.10 L 532.00 536.80 L 539.20 524.00 L 543.10 516.00 L 545.00 511.50 L 545.60 509.20 L 545.50 508.20 L 544.60 507.00 L 542.30 505.10 L 537.80 502.40 L 530.00 498.50 Z" fill="#747474" fill-rule="evenodd" group-id="3" id="路径-230" node-id="98" stroke="none" target-height="40.69998" target-width="25.799988" target-x="530" target-y="496.4"></path><path d="M 525.90 536.80 L 525.70 539.50 L 529.80 542.00 L 533.10 543.50 L 535.60 544.20 L 536.60 544.20 L 538.20 543.80 L 538.80 543.30 L 538.90 542.60 L 538.60 541.80 L 537.30 540.40 L 535.40 538.90 L 532.00 536.80 L 530.10 536.60 L 525.90 536.80 Z" fill="#373c60" fill-rule="evenodd" group-id="3" id="路径-231" node-id="99" stroke="none" target-height="7.6000366" target-width="13.200012" target-x="525.7" target-y="536.6"></path></g></svg>
